<?xml version="1.0" encoding="UTF-8"?>
<!DOCTYPE svg PUBLIC "-//W3C//DTD SVG 1.1//EN" "http://www.w3.org/Graphics/SVG/1.1/DTD/svg11.dtd">
<!-- Creator: CorelDRAW X7 -->
<svg xmlns="http://www.w3.org/2000/svg" xml:space="preserve" width="213.471mm" height="44.6259mm" version="1.1" style="shape-rendering:geometricPrecision; text-rendering:geometricPrecision; image-rendering:optimizeQuality; fill-rule:evenodd; clip-rule:evenodd"
viewBox="0 0 21347 4463"
 xmlns:xlink="http://www.w3.org/1999/xlink">
 <defs>
  <style type="text/css">
   <![CDATA[
    .fil0 {fill:#F7A81E}
    .fil1 {fill:#27284B;fill-rule:nonzero}
    .fil2 {fill:#FEFEFE;fill-rule:nonzero}
   ]]>
  </style>
 </defs>
 <g id="Ebene_x0020_1">
  <metadata id="CorelCorpID_0Corel-Layer"/>
  <path class="fil0" d="M9371 2874l11555 -505c202,-9 375,150 384,352l37 853c9,202 -150,375 -352,384l-11554 504c-203,9 -375,-149 -384,-352l-37 -852c-9,-203 149,-375 351,-384z"/>
  <path class="fil0" d="M1247 2070l-496 -716 450 -588c12,-15 14,-35 5,-52 -8,-18 -25,-28 -44,-28l-332 0c-17,0 -32,7 -41,21l-412 588 0 -1245c0,-28 -23,-50 -50,-50l-277 0c-28,0 -50,22 -50,50l0 2049c0,27 22,50 50,50l277 0c27,0 50,-23 50,-50l0 -674 438 700c10,15 25,24 43,24l348 0c19,0 35,-10 44,-27 9,-17 8,-36 -3,-52zm955 -1416c-220,2 -346,154 -412,326l-6 0c14,-81 23,-172 25,-242 1,-14 -4,-27 -13,-37 -10,-10 -22,-15 -36,-15l-256 0c-27,0 -50,22 -50,50l0 1363c0,27 23,50 50,50l277 0c28,0 50,-23 50,-50l0 -548c0,-379 118,-556 355,-534 14,1 26,-3 37,-12 11,-10 16,-21 17,-36l13 -263c0,-14 -4,-26 -14,-37 -10,-10 -22,-15 -37,-15zm1387 653c0,-362 -188,-654 -615,-654 -439,0 -686,330 -686,777 0,516 259,748 721,748 180,0 371,-32 530,-97l-41 -286c-139,59 -286,89 -424,89 -271,0 -406,-133 -403,-403l906 0c9,-65 12,-124 12,-174zm-374 -80l-539 0c21,-182 130,-297 286,-297 159,0 259,109 253,297zm1837 872l0 -2049c0,-28 -22,-50 -50,-50l-274 0c-27,0 -50,22 -50,50l0 621c-64,-9 -123,-12 -185,-12 -486,0 -774,342 -774,836 0,418 176,686 533,686 223,0 385,-115 462,-277l6 0c-9,62 -15,132 -17,193 -1,14 4,26 14,36 10,11 22,16 36,16l249 0c28,0 50,-23 50,-50zm-374 -710c0,250 -117,480 -315,480 -170,0 -250,-141 -250,-415 0,-362 153,-497 368,-497 65,0 130,8 197,23l0 409zm1122 -1148c0,-129 -106,-229 -235,-229 -130,0 -233,103 -233,229 0,127 103,227 233,227 129,0 235,-103 235,-227zm-47 1858l0 -1363c0,-28 -22,-50 -50,-50l-277 0c-27,0 -50,22 -50,50l0 1363c0,27 23,50 50,50l277 0c28,0 50,-23 50,-50zm1127 -5l-17 -198c-2,-14 -8,-26 -20,-35 -11,-8 -24,-12 -38,-9 -36,6 -74,8 -115,8 -130,0 -174,-53 -174,-241l0 -642 306 0c28,0 50,-22 50,-50l0 -191c0,-28 -22,-50 -50,-50l-306 0 0 -486c0,-16 -7,-29 -20,-39 -12,-10 -27,-13 -43,-9l-274 74c-22,5 -37,25 -37,48l0 412 -203 0c-27,0 -50,22 -50,50l0 191c0,28 23,50 50,50l203 0 0 742c0,341 100,459 424,459 88,0 189,-13 275,-31 25,-5 41,-28 39,-53z"/>
  <path class="fil1" d="M20063 1521l-368 0c14,-125 89,-203 195,-203 108,0 177,74 173,203zm255 54c0,-247 -129,-446 -420,-446 -299,0 -467,225 -467,530 0,351 176,510 491,510 108,0 223,-17 323,-52 22,-8 36,-30 33,-54l-14 -94c-2,-15 -10,-27 -23,-35 -13,-8 -28,-10 -42,-5 -77,26 -157,39 -233,39 -184,0 -277,-90 -275,-275l574 0c26,0 47,-20 50,-46 2,-26 3,-50 3,-72zm-1293 56c0,170 -80,327 -215,327 -116,0 -170,-96 -170,-283 0,-247 104,-339 250,-339 45,0 89,6 135,16l0 279zm255 468l0 -1365c0,-28 -23,-50 -50,-50l-155 0c-28,0 -50,22 -50,50l0 407c-44,-6 -84,-8 -127,-8 -331,0 -527,233 -527,570 0,285 120,468 363,468 152,0 263,-79 315,-189l4 0c-5,36 -9,77 -11,114 0,15 4,27 14,37 10,10 22,16 36,16l138 0c27,0 50,-23 50,-50zm-1018 -93c0,-88 -72,-162 -163,-162 -90,0 -164,74 -164,162 0,90 74,165 164,165 91,0 163,-75 163,-165zm-742 -817c0,498 -109,668 -297,668 -218,0 -300,-153 -300,-686 0,-506 123,-650 297,-650 203,0 300,129 300,668zm406 -12c0,-721 -253,-974 -688,-974 -424,0 -721,312 -721,980 0,768 259,998 688,998 383,0 721,-294 721,-1004zm-1940 12c0,498 -109,668 -297,668 -218,0 -300,-153 -300,-686 0,-506 123,-650 297,-650 203,0 300,129 300,668zm406 -12c0,-721 -253,-974 -688,-974 -424,0 -721,312 -721,980 0,768 259,998 688,998 383,0 721,-294 721,-1004zm-2119 218c-91,0 -365,0 -495,6l492 -789 3 0 0 783zm645 0l-280 0 0 -1110c0,-27 -23,-50 -50,-50l-434 0c-18,0 -34,9 -43,24l-703 1148c-7,10 -9,20 -8,32l29 250c3,26 24,45 49,45l789 0 0 365c0,27 22,50 50,50l271 0c27,0 50,-23 50,-50l0 -365 336 0c-31,-110 -48,-226 -56,-339zm-1547 673l-564 -717 510 -582c14,-15 17,-36 8,-54 -8,-18 -25,-29 -45,-29l-135 0c-15,0 -28,6 -38,18l-535 638 0 -1292c0,-28 -23,-50 -50,-50l-121 0c-28,0 -50,22 -50,50l0 2049c0,27 22,50 50,50l121 0c27,0 50,-23 50,-50l0 -719 562 749c9,13 23,20 40,20l157 0c20,0 37,-11 45,-28 9,-18 7,-38 -5,-53zm-1219 -23l-19 -82c-3,-15 -12,-26 -25,-33 -13,-7 -27,-8 -41,-3 -94,35 -198,54 -309,54 -350,0 -445,-250 -445,-551 0,-341 156,-585 439,-585 108,0 216,22 305,52 14,4 27,3 40,-4 12,-7 21,-18 24,-32l21 -88c6,-25 -8,-51 -33,-59 -95,-31 -208,-49 -331,-49 -456,0 -697,324 -697,804 0,553 306,700 633,700 139,0 286,-23 406,-66 24,-9 37,-33 32,-58zm-1447 -826l-741 0c35,-242 182,-392 388,-392 224,0 359,153 353,392zm230 44c0,-324 -168,-604 -571,-604 -406,0 -642,327 -642,766 0,512 236,750 671,750 166,0 322,-27 457,-75 24,-9 37,-33 32,-58l-17 -79c-3,-15 -12,-27 -25,-34 -13,-7 -27,-8 -41,-3 -114,42 -240,64 -362,64 -326,0 -500,-180 -485,-610l931 0c27,0 48,-20 50,-46 2,-30 2,-53 2,-71zm-1404 836l0 -969c0,-262 -103,-471 -439,-471 -253,0 -435,139 -521,354l-5 -3c17,-74 23,-195 23,-292l0 -668c0,-28 -22,-50 -50,-50l-121 0c-27,0 -50,22 -50,50l0 2049c0,27 23,50 50,50l121 0c28,0 50,-23 50,-50l0 -651c0,-347 185,-606 447,-606 212,0 274,132 274,362l0 895c0,27 23,50 50,50l121 0c28,0 50,-23 50,-50zm-1383 -54l-19 -82c-3,-15 -12,-26 -25,-33 -13,-7 -27,-8 -41,-3 -94,35 -198,54 -309,54 -350,0 -445,-250 -445,-551 0,-341 156,-585 439,-585 108,0 216,22 305,52 14,4 27,3 40,-4 12,-7 21,-18 24,-32l21 -88c6,-25 -8,-51 -33,-59 -95,-31 -208,-49 -331,-49 -456,0 -697,324 -697,804 0,553 306,700 633,700 139,0 286,-23 406,-66 24,-9 37,-33 32,-58z"/>
  <path class="fil2" d="M10033 3585c-10,-239 -148,-332 -366,-323 -79,4 -159,10 -213,14l30 688c54,-1 113,-1 183,-4 225,-10 377,-138 366,-375zm-118 13c8,177 -93,260 -241,267 -26,1 -60,0 -83,-2l-22 -501c25,-3 60,-6 94,-7 169,-8 245,80 252,243z"/>
  <path id="1" class="fil2" d="M10547 3918c-4,-43 -7,-95 -9,-139l-9 -210c-5,-102 -51,-167 -205,-160 -65,3 -133,20 -183,41l25 87c40,-23 97,-41 144,-43 79,-3 107,29 110,92l1 29c-186,8 -296,76 -291,190 3,83 61,138 148,135 81,-4 142,-52 164,-113l1 1c-3,28 -3,62 -1,94l105 -4zm-122 -215c3,72 -44,146 -118,149 -43,2 -71,-26 -73,-65 -2,-48 38,-92 191,-98l0 14z"/>
  <path id="2" class="fil2" d="M11003 3742c-8,-170 -230,-105 -234,-205 -2,-39 26,-65 86,-68 32,-1 66,3 96,11l3 -89c-30,-4 -66,-7 -97,-6 -140,7 -204,78 -200,167 8,175 227,102 232,206 2,41 -37,69 -94,71 -39,2 -80,-4 -112,-14l-4 93c32,8 74,11 112,9 135,-6 216,-79 212,-175z"/>
  <path id="3" class="fil2" d="M11808 3654c-3,-72 -49,-138 -140,-152l0 -2c71,-29 109,-91 106,-162 -5,-106 -85,-164 -232,-157 -84,3 -160,9 -214,12l30 689c76,-2 147,-3 189,-5 211,-9 265,-133 261,-223zm-151 -293c3,69 -43,113 -146,118 -24,1 -41,1 -59,1l-9 -204c26,-2 54,-4 83,-6 96,-4 129,35 131,91zm33 300c3,70 -42,121 -143,125 -36,2 -65,1 -82,-2l-10 -219c16,-2 51,-3 63,-4 97,-4 168,21 172,100z"/>
  <path id="4" class="fil2" d="M12329 3541c-5,-120 -72,-217 -217,-210 -148,6 -227,124 -220,277 8,179 98,257 254,250 64,-3 126,-17 179,-40l-18 -86c-45,23 -96,35 -145,37 -101,5 -156,-45 -157,-161l323 -14c1,-21 2,-39 1,-53zm-110 -18l-216 10c6,-72 47,-119 109,-122 64,-2 106,40 107,112z"/>
  <path id="5" class="fil2" d="M12763 3665c-7,-170 -230,-105 -234,-205 -2,-39 26,-65 86,-67 33,-2 67,2 97,10l2 -88c-30,-5 -66,-8 -97,-6 -139,6 -204,77 -200,166 8,175 228,102 232,207 2,40 -37,68 -94,70 -39,2 -80,-3 -112,-14l-4 93c32,8 74,11 113,9 134,-6 215,-79 211,-175z"/>
  <path id="6" class="fil2" d="M13164 3800l-13 -87c-19,5 -40,9 -62,10 -51,2 -68,-18 -71,-93l-10 -243 132 -6 -3 -85 -133 6 -8 -191 -108 34 7 162 -97 4 3 85 97 -5 12 277c5,113 40,154 148,149 34,-1 75,-8 106,-17z"/>
  <path id="7" class="fil2" d="M13661 3483c-5,-121 -72,-217 -217,-211 -148,7 -226,125 -220,278 8,179 99,257 255,250 63,-3 126,-17 178,-41l-18 -85c-45,23 -96,35 -145,37 -101,5 -155,-45 -157,-161l324 -14c1,-21 1,-39 0,-53zm-110 -18l-215 10c6,-72 47,-119 108,-122 64,-2 106,40 107,112z"/>
  <path id="8" class="fil2" d="M14396 3750c-4,-43 -7,-95 -9,-139l-9 -210c-5,-102 -50,-167 -205,-160 -65,3 -133,20 -183,41l25 87c40,-23 97,-41 144,-43 79,-3 107,29 110,92l1 29c-185,8 -296,75 -291,190 4,83 61,138 148,135 81,-4 142,-52 164,-113l1 1c-3,28 -2,61 -1,94l105 -4zm-122 -215c3,72 -43,146 -118,149 -43,2 -71,-26 -72,-65 -2,-48 38,-92 190,-98l0 14z"/>
  <path id="9" class="fil2" d="M14980 3724l-22 -507 -109 4 10 244c5,103 -48,186 -124,189 -58,3 -78,-35 -80,-98l-14 -326 -109 5 16 356c4,88 43,160 158,155 86,-3 145,-51 172,-118l1 0c-4,29 -4,73 -3,101l104 -5z"/>
  <path id="10" class="fil2" d="M15437 3549c-7,-171 -230,-106 -234,-206 -2,-39 26,-65 86,-67 33,-2 67,2 97,10l2 -88c-30,-5 -66,-8 -97,-6 -139,6 -204,77 -200,166 8,176 228,103 232,207 2,41 -37,68 -94,70 -39,2 -80,-3 -112,-14l-4 93c32,8 74,11 113,10 134,-6 215,-79 211,-175z"/>
  <path id="11" class="fil2" d="M16246 3519l-4 -98 -103 5 -18 -417 -148 7 -250 436 13 90 300 -13 6 149 108 -5 -6 -149 102 -5zm-213 -88c-36,1 -146,6 -200,10l186 -318 1 0 13 308z"/>
  <path id="12" class="fil2" d="M16777 3307c-11,-254 -106,-332 -246,-326 -143,6 -239,118 -229,350 11,260 100,341 247,335 125,-6 239,-109 228,-359zm-118 10c8,177 -34,252 -109,256 -88,3 -123,-66 -131,-252 -8,-184 41,-245 109,-248 82,-3 123,51 131,244z"/>
  <path id="13" class="fil2" d="M17338 3283c-11,-255 -105,-332 -245,-326 -143,6 -240,118 -229,349 11,261 99,342 246,335 126,-5 239,-108 228,-358zm-117 10c8,176 -34,252 -110,255 -87,4 -122,-65 -130,-252 -8,-184 40,-244 109,-247 81,-4 123,51 131,244z"/>
  <path id="14" class="fil2" d="M18149 3377c-3,-71 -49,-138 -139,-151l0 -2c70,-30 108,-92 105,-163 -4,-106 -85,-164 -232,-157 -83,3 -160,9 -214,12l30 689c77,-2 147,-3 189,-5 211,-9 265,-133 261,-223zm-150 -293c3,69 -44,113 -147,118 -23,1 -41,2 -59,1l-9 -204c27,-2 54,-4 84,-6 96,-4 128,35 131,91zm32 300c3,70 -42,121 -143,125 -35,2 -64,1 -82,-1l-9 -220c15,-2 51,-3 62,-4 97,-4 169,22 172,100z"/>
  <path id="15" class="fil2" d="M18661 3563c-4,-42 -7,-94 -9,-138l-9 -211c-5,-101 -51,-166 -205,-160 -65,3 -133,21 -183,42l25 87c40,-23 97,-41 143,-43 80,-3 108,29 111,91l1 30c-186,8 -296,75 -291,190 3,82 61,138 148,134 80,-3 142,-51 164,-112l1 1c-3,28 -3,61 -1,94l105 -5zm-122 -214c3,72 -44,146 -118,149 -43,2 -71,-26 -73,-65 -2,-48 38,-92 190,-99l1 15z"/>
  <path id="16" class="fil2" d="M19245 3538l-16 -355c-3,-89 -42,-161 -158,-156 -86,4 -145,51 -172,118l-1 0c4,-29 4,-73 3,-101l-104 5 22 507 109 -4 -10 -244c-5,-102 48,-186 124,-189 59,-2 78,35 80,98l15 326 108 -5z"/>
  <polygon id="17" class="fil2" points="19826,3512 19612,3246 19789,3006 19656,3012 19501,3236 19481,2781 19372,2786 19404,3531 19513,3526 19502,3269 19687,3519 "/>
  <path id="18" class="fil2" d="M20287 3194c-6,-121 -72,-217 -217,-211 -148,7 -227,125 -220,278 7,179 98,256 254,250 63,-3 126,-17 178,-41l-18 -85c-45,22 -95,35 -144,37 -102,4 -156,-45 -158,-161l324 -14c1,-22 1,-39 1,-53zm-111 -18l-215 9c6,-71 47,-118 108,-121 64,-3 106,39 107,112z"/>
  <path id="19" class="fil2" d="M20849 3468l-16 -355c-4,-89 -42,-161 -158,-156 -86,4 -145,51 -172,118l-1 0c4,-29 4,-73 3,-101l-104 5 22 507 109 -4 -10 -244c-5,-102 48,-186 124,-189 59,-2 78,35 80,98l15 326 108 -5z"/>
 </g>
</svg>
