<svg id="svg" version="1.1" xmlns="http://www.w3.org/2000/svg" xmlns:xlink="http://www.w3.org/1999/xlink" width="400" height="270.94188376753505" viewBox="0, 0, 400,270.94188376753505"><g id="svgg"><path id="path0" d="M95.257 0.185 C 48.302 3.295,8.988 38.741,1.368 84.836 C 0.219 91.788,0.134 92.981,0.134 102.071 C 0.134 188.941,100.922 235.995,167.802 180.348 C 174.284 174.954,182.256 166.197,186.248 160.084 L 186.658 159.457 193.747 163.804 L 200.836 168.150 200.485 169.504 C 199.230 174.342,200.795 178.734,204.770 181.527 C 209.707 184.996,273.337 220.473,275.364 220.887 C 281.534 222.145,289.435 217.970,292.640 211.757 C 296.285 204.691,295.539 194.195,291.141 190.675 C 289.401 189.283,224.208 151.207,222.578 150.632 C 219.035 149.380,214.476 150.383,211.058 153.167 L 209.562 154.386 202.089 149.939 L 194.617 145.491 195.498 143.551 C 203.441 126.065,206.080 104.338,202.680 84.436 C 202.040 80.687,200.924 76.152,200.642 76.152 C 200.065 76.152,184.002 84.446,183.386 85.062 C 183.350 85.098,183.545 86.384,183.820 87.921 C 195.589 153.745,126.583 206.075,66.333 177.016 C 7.870 148.820,2.565 68.366,56.811 32.608 C 90.996 10.074,139.593 16.966,164.863 47.933 C 166.345 49.749,165.715 49.851,170.238 47.066 C 180.118 40.982,193.361 34.213,205.344 29.121 L 208.016 27.986 210.507 30.626 C 219.257 39.900,226.758 51.016,230.949 60.922 C 232.762 65.205,232.911 64.693,229.592 65.576 C 224.223 67.003,211.334 71.330,210.693 71.920 C 210.193 72.380,234.496 71.913,236.443 71.424 C 240.460 70.417,241.814 67.280,240.462 62.115 C 237.220 49.738,228.501 35.695,217.007 24.340 C 210.371 17.783,208.662 17.614,197.194 22.374 C 192.296 24.407,185.965 27.494,180.731 30.399 L 176.960 32.493 173.651 29.269 C 152.576 8.744,124.318 -1.740,95.257 0.185 M266.018 20.460 C 265.378 21.100,265.378 61.198,266.018 61.838 C 266.629 62.449,272.316 62.449,272.927 61.838 C 273.285 61.479,273.347 60.476,273.347 54.971 L 273.347 48.524 277.515 55.191 C 282.439 63.066,281.463 62.249,285.953 62.254 C 291.768 62.260,291.788 62.671,285.543 53.647 L 280.638 46.559 284.990 40.888 C 291.025 33.023,291.017 33.349,285.180 33.460 L 281.275 33.534 277.377 39.097 L 273.480 44.661 273.411 32.708 C 273.362 24.426,273.250 20.646,273.044 20.398 C 272.582 19.842,266.583 19.894,266.018 20.460 M357.034 20.361 C 356.803 20.592,356.713 22.406,356.713 26.840 L 356.713 32.999 353.440 33.010 C 343.700 33.041,338.197 38.963,338.179 49.432 C 338.170 54.709,339.274 57.955,341.886 60.343 C 345.911 64.022,353.305 63.420,356.567 59.148 L 357.453 57.987 357.311 59.763 C 357.123 62.102,357.331 62.258,360.656 62.258 C 364.649 62.258,364.195 64.958,364.195 41.193 C 364.195 25.596,364.118 20.605,363.874 20.361 C 363.432 19.919,357.476 19.919,357.034 20.361 M371.935 20.908 C 369.047 22.366,368.682 26.496,371.267 28.468 C 373.285 30.007,376.630 29.502,378.018 27.449 C 380.741 23.423,376.336 18.687,371.935 20.908 M388.623 23.756 C 387.142 24.162,385.789 24.581,385.617 24.688 C 385.399 24.823,385.304 26.174,385.304 29.141 L 385.304 33.400 383.042 33.400 C 380.331 33.400,380.227 33.509,380.227 36.339 C 380.227 39.167,380.333 39.279,383.026 39.279 L 385.272 39.279 385.355 48.564 C 385.470 61.452,386.102 62.569,393.320 62.635 C 399.299 62.689,400.000 62.296,399.688 59.065 C 399.410 56.188,399.359 56.137,396.832 56.197 C 392.924 56.290,392.789 55.961,392.787 46.293 L 392.786 39.279 395.939 39.279 C 399.786 39.279,399.733 39.320,399.733 36.339 C 399.733 33.359,399.786 33.400,395.939 33.400 L 392.786 33.400 392.786 28.510 C 392.786 22.248,393.044 22.543,388.623 23.756 M306.480 33.109 C 304.275 33.803,302.746 35.055,301.557 37.141 L 300.872 38.343 301.043 36.280 C 301.279 33.418,301.257 33.400,297.505 33.400 C 294.782 33.400,294.446 33.453,294.198 33.917 C 293.693 34.860,293.829 61.326,294.341 61.838 C 294.823 62.320,300.416 62.451,301.136 61.997 C 301.472 61.785,301.560 60.458,301.683 53.784 C 301.888 42.680,303.050 40.108,307.873 40.086 C 309.573 40.078,309.722 39.732,309.628 36.007 L 309.552 32.999 308.350 32.949 C 307.689 32.922,306.847 32.994,306.480 33.109 M319.910 33.278 C 313.633 34.968,310.349 40.153,310.358 48.363 C 310.370 60.254,318.654 65.329,332.135 61.704 C 335.070 60.915,334.913 61.168,334.442 57.992 C 333.949 54.673,334.261 54.926,331.719 55.775 C 324.588 58.158,318.590 55.908,318.048 50.649 L 317.895 49.165 326.728 49.165 L 335.562 49.165 335.756 47.361 C 336.827 37.395,329.338 30.739,319.910 33.278 M370.661 33.721 C 370.030 34.352,370.219 61.640,370.858 61.981 C 371.529 62.341,376.634 62.341,377.305 61.981 C 378.034 61.592,378.126 33.841,377.400 33.562 C 376.592 33.252,370.998 33.384,370.661 33.721 M325.851 39.091 C 327.068 39.780,327.974 41.252,328.227 42.953 L 328.396 44.088 323.211 44.088 L 318.026 44.088 318.223 43.220 C 319.114 39.303,322.751 37.335,325.851 39.091 M355.734 39.187 L 356.759 39.356 356.656 44.862 C 356.540 51.094,356.201 52.527,354.363 54.561 C 350.451 58.892,346.025 55.763,346.025 48.667 C 346.025 41.309,349.289 38.122,355.734 39.187 M225.251 156.908 C 227.375 157.987,232.739 161.079,269.734 182.546 C 284.669 191.211,285.366 191.695,284.374 192.687 C 283.647 193.413,281.600 192.303,253.018 175.677 C 221.552 157.374,221.490 157.341,218.236 157.286 C 215.819 157.246,215.865 157.278,217.230 156.582 C 219.961 155.189,222.031 155.273,225.251 156.908 " stroke="none" fill="#fcac3c" fill-rule="evenodd"></path><path id="path1" d="M203.874 29.760 C 191.644 35.089,181.281 40.390,171.543 46.298 C 169.118 47.769,166.774 49.157,166.333 49.382 C 165.302 49.909,160.203 53.307,158.985 54.279 C 158.470 54.689,155.404 56.999,152.171 59.412 C 135.268 72.025,119.961 86.919,105.029 105.277 C 103.056 107.702,101.357 109.787,101.252 109.910 C 101.147 110.034,100.397 109.012,99.585 107.639 C 93.088 96.653,81.073 86.381,63.460 76.754 C 57.656 73.582,57.171 73.377,56.781 73.930 C 56.592 74.197,51.561 80.844,45.600 88.702 L 34.762 102.988 39.492 104.618 C 66.232 113.836,88.086 129.796,102.836 150.878 L 104.536 153.308 107.363 150.067 C 122.754 132.431,140.762 115.160,155.778 103.637 C 162.484 98.491,173.975 90.448,175.492 89.839 C 175.932 89.662,179.972 87.246,185.099 84.095 C 188.145 82.222,199.914 76.432,204.542 74.529 C 206.747 73.623,209.152 72.602,209.886 72.261 C 213.234 70.705,223.950 67.068,229.592 65.573 C 232.911 64.694,232.762 65.205,230.949 60.922 C 227.661 53.151,222.612 45.007,216.274 37.248 C 213.359 33.680,208.243 28.050,207.928 28.064 C 207.830 28.068,206.005 28.831,203.874 29.760 M219.301 155.787 C 218.420 156.008,216.166 157.015,216.166 157.188 C 216.166 157.223,217.098 157.267,218.236 157.286 C 221.490 157.341,221.552 157.374,253.018 175.677 C 281.600 192.303,283.647 193.413,284.374 192.687 C 285.366 191.695,284.669 191.211,269.734 182.546 C 217.886 152.460,222.600 154.962,219.301 155.787 " stroke="none" fill="#fbfbfb" fill-rule="evenodd"></path><path id="path2" d="M96.460 27.686 C 32.564 33.491,4.255 110.080,49.408 154.983 C 92.643 197.979,166.631 173.583,175.839 113.293 C 176.848 106.690,176.687 91.076,175.600 89.989 C 175.376 89.764,167.116 95.249,161.423 99.402 C 144.009 112.108,124.419 130.473,107.560 149.900 C 105.965 151.737,104.635 153.274,104.603 153.316 C 104.572 153.358,103.585 152.035,102.410 150.377 C 86.935 128.528,63.961 112.352,35.458 103.236 L 34.710 102.997 45.849 88.306 C 51.976 80.225,57.019 73.576,57.057 73.531 C 57.186 73.372,62.519 76.155,66.903 78.669 C 82.768 87.766,93.852 97.637,99.845 108.005 L 101.036 110.064 104.801 105.466 C 121.051 85.621,138.218 69.188,155.837 56.615 L 159.250 54.179 157.944 52.674 C 143.244 35.737,118.505 25.683,96.460 27.686 M292.862 65.714 C 292.678 66.058,292.585 73.394,292.585 87.642 C 292.585 112.111,292.356 110.087,295.124 110.087 C 297.798 110.087,297.662 110.577,297.662 100.942 C 297.662 90.828,298.074 88.876,300.881 85.687 C 303.709 82.474,309.090 81.990,311.071 84.771 C 312.208 86.368,312.349 87.928,312.358 98.998 C 312.368 111.029,312.160 110.135,314.920 110.032 L 317.034 109.953 317.034 97.501 L 317.034 85.049 316.099 83.221 C 312.975 77.118,302.658 77.368,298.340 83.653 L 297.501 84.874 297.615 75.615 C 297.697 68.907,297.643 66.196,297.419 65.776 C 296.976 64.949,293.298 64.899,292.862 65.714 M376.075 65.531 C 376.005 65.715,375.979 75.785,376.016 87.909 L 376.086 109.953 378.047 110.032 C 380.943 110.149,380.762 110.687,380.762 101.998 L 380.762 94.509 386.573 102.231 L 392.385 109.953 394.923 109.953 L 397.462 109.953 397.545 109.231 C 397.613 108.637,396.576 107.175,391.717 101.015 C 388.466 96.893,385.881 93.400,385.972 93.253 C 386.063 93.105,388.475 90.313,391.332 87.048 C 397.596 79.890,397.777 79.359,393.953 79.359 L 392.021 79.359 386.458 86.007 L 380.895 92.656 380.755 78.993 C 380.679 71.479,380.588 65.301,380.555 65.264 C 380.316 65.001,376.183 65.248,376.075 65.531 M332.131 78.991 C 324.944 80.385,321.072 86.083,321.078 95.257 C 321.086 106.544,326.425 111.504,337.604 110.610 C 343.464 110.141,345.628 109.262,345.358 107.461 C 344.991 105.012,344.796 104.942,341.216 105.968 C 332.534 108.458,326.618 104.719,326.062 96.393 L 325.906 94.055 335.912 94.055 C 347.312 94.055,346.560 94.226,346.560 91.633 C 346.560 82.992,340.207 77.425,332.131 78.991 M276.074 79.507 C 269.436 81.294,265.843 86.945,265.803 95.658 C 265.754 106.293,270.530 111.106,280.561 110.533 C 286.351 110.202,288.494 109.306,288.199 107.341 C 287.874 105.171,287.690 105.083,284.924 105.761 C 275.912 107.971,271.299 104.755,271.008 96.059 C 270.666 85.848,275.525 81.355,284.443 83.636 C 287.327 84.374,288.036 83.893,288.041 81.195 C 288.045 79.400,280.452 78.329,276.074 79.507 M359.683 79.514 C 353.057 81.296,349.425 87.111,349.433 95.925 C 349.442 106.304,354.288 111.099,364.195 110.533 C 369.985 110.202,372.128 109.306,371.833 107.341 C 371.508 105.171,371.324 105.083,368.558 105.761 C 359.641 107.948,354.963 104.751,354.637 96.248 C 354.240 85.908,359.013 81.445,368.129 83.630 C 371.031 84.326,371.669 83.887,371.675 81.195 C 371.679 79.394,364.087 78.329,359.683 79.514 M336.570 82.960 C 339.207 83.743,341.026 86.064,341.383 89.101 L 341.557 90.581 333.899 90.581 L 326.242 90.581 326.419 89.846 C 327.737 84.347,331.849 81.558,336.570 82.960 M328.142 117.167 C 317.457 119.578,312.211 129.138,312.234 146.159 C 312.261 165.784,317.542 173.952,330.661 174.659 C 345.289 175.446,353.379 164.809,353.351 144.823 C 353.329 128.914,349.557 120.841,340.693 117.736 C 337.902 116.758,331.282 116.458,328.142 117.167 M373.032 117.167 C 362.347 119.578,357.101 129.138,357.124 146.159 C 357.151 165.784,362.432 173.952,375.551 174.659 C 390.179 175.446,398.269 164.809,398.241 144.823 C 398.219 128.914,394.446 120.841,385.583 117.736 C 382.791 116.758,376.172 116.458,373.032 117.167 M286.925 117.902 C 286.603 118.160,268.864 146.895,266.182 151.503 C 265.473 152.721,266.210 160.662,267.091 161.306 C 267.469 161.583,270.043 161.657,279.276 161.657 L 290.982 161.657 290.982 167.146 L 290.982 172.636 291.655 173.310 L 292.329 173.983 296.888 173.899 C 302.696 173.791,302.204 174.409,302.204 167.217 L 302.204 161.657 307.176 161.657 C 311.804 161.657,312.135 161.624,311.963 161.189 C 311.620 160.320,310.741 155.429,310.575 153.459 L 310.409 151.503 306.307 151.503 L 302.204 151.503 302.204 135.070 C 302.204 118.994,302.193 118.626,301.670 118.103 C 301.008 117.441,287.728 117.261,286.925 117.902 M336.462 127.111 C 340.257 129.175,342.034 137.696,341.221 149.937 C 340.495 160.885,338.021 165.065,332.329 164.965 C 326.760 164.867,324.655 160.545,324.212 148.297 C 323.592 131.122,328.435 122.746,336.462 127.111 M381.352 127.111 C 385.147 129.175,386.924 137.696,386.111 149.937 C 385.384 160.885,382.911 165.065,377.219 164.965 C 371.649 164.867,369.545 160.545,369.102 148.297 C 368.481 131.122,373.325 122.746,381.352 127.111 M291.249 140.394 L 291.249 151.463 284.235 151.550 C 280.377 151.598,277.210 151.637,277.197 151.637 C 277.183 151.637,280.307 146.617,284.139 140.481 C 287.970 134.345,291.138 129.325,291.177 129.325 C 291.217 129.325,291.249 134.306,291.249 140.394 M130.127 258.116 L 130.127 270.675 132.131 270.675 L 134.135 270.675 134.140 266.600 L 134.145 262.525 136.808 266.600 L 139.470 270.675 142.015 270.675 L 144.561 270.675 142.164 267.401 C 140.847 265.601,139.332 263.504,138.800 262.740 L 137.831 261.352 140.568 257.930 C 142.074 256.049,143.485 254.299,143.705 254.041 C 144.081 253.601,143.962 253.574,141.663 253.574 L 139.222 253.574 136.678 256.956 L 134.135 260.337 134.135 252.948 L 134.135 245.558 132.131 245.558 L 130.127 245.558 130.127 258.116 M186.506 249.409 L 186.506 253.260 184.436 253.253 C 178.256 253.232,175.069 256.841,175.332 263.562 C 175.533 268.720,177.141 270.741,181.172 270.900 C 183.764 271.003,184.715 270.684,186.035 269.271 L 186.774 268.481 186.774 269.578 L 186.774 270.675 188.644 270.675 L 190.514 270.675 190.514 258.116 L 190.514 245.558 188.510 245.558 L 186.506 245.558 186.506 249.409 M231.931 258.116 L 231.931 270.675 233.776 270.675 L 235.622 270.675 235.714 265.523 C 235.832 258.839,236.895 256.513,239.831 256.513 C 242.206 256.513,242.351 256.974,242.351 264.516 L 242.351 270.675 244.385 270.675 L 246.418 270.675 246.311 263.794 C 246.190 256.030,245.956 254.935,244.191 253.861 C 242.099 252.589,238.457 253.014,236.623 254.744 L 235.671 255.641 235.671 250.599 L 235.671 245.558 233.801 245.558 L 231.931 245.558 231.931 258.116 M283.233 258.116 L 283.233 270.675 285.237 270.675 L 287.241 270.675 287.242 266.600 L 287.243 262.525 289.954 266.600 L 292.666 270.675 295.187 270.675 L 297.708 270.675 296.789 269.405 C 296.284 268.707,294.874 266.754,293.655 265.063 C 292.436 263.373,291.334 261.856,291.206 261.691 C 291.055 261.497,291.978 260.131,293.825 257.817 C 295.394 255.850,296.793 254.092,296.935 253.908 C 297.137 253.646,296.670 253.574,294.782 253.574 L 292.372 253.574 289.873 256.925 L 287.375 260.276 287.304 252.917 L 287.233 245.558 285.233 245.558 L 283.233 245.558 283.233 258.116 M374.883 249.405 L 374.883 253.253 372.679 253.256 C 366.050 253.263,362.357 258.691,363.944 266.093 C 365.016 271.089,371.965 272.966,374.737 269.008 C 375.138 268.436,375.150 268.452,375.150 269.546 L 375.150 270.675 377.021 270.675 L 378.891 270.675 378.891 258.116 L 378.891 245.558 376.887 245.558 L 374.883 245.558 374.883 249.405 M196.259 246.134 C 194.085 247.323,194.916 250.647,197.383 250.626 C 198.490 250.617,199.077 250.281,199.556 249.383 C 200.652 247.323,198.308 245.013,196.259 246.134 M206.613 247.618 L 205.210 248.031 205.210 250.802 L 205.210 253.574 203.607 253.574 L 202.004 253.574 202.004 255.043 L 202.004 256.513 203.607 256.513 L 205.210 256.513 205.231 262.191 C 205.261 270.519,205.588 271.049,210.600 270.896 C 213.935 270.793,213.717 270.930,213.518 269.071 L 213.360 267.602 211.890 267.686 C 209.264 267.836,208.982 267.152,208.963 260.588 L 208.951 256.513 211.222 256.513 L 213.494 256.513 213.494 255.043 L 213.494 253.574 211.222 253.574 L 208.951 253.574 208.951 250.367 C 208.951 246.729,209.087 246.889,206.613 247.618 M322.747 248.709 C 316.481 251.983,316.351 267.929,322.570 270.527 C 324.930 271.513,328.855 270.975,330.687 269.415 C 334.659 266.031,335.417 254.693,331.972 250.177 C 330.248 247.916,325.662 247.186,322.747 248.709 M341.452 248.709 C 335.388 251.876,335.024 267.347,340.942 270.341 C 344.053 271.914,348.707 270.841,350.581 268.117 C 353.512 263.856,353.643 254.286,350.822 250.391 C 349.036 247.927,344.506 247.113,341.452 248.709 M303.155 255.338 C 298.661 262.558,298.559 262.786,298.902 264.863 L 299.068 265.865 303.976 265.865 L 308.884 265.865 308.884 268.270 L 308.884 270.675 310.888 270.675 L 312.892 270.675 312.892 268.270 L 312.892 265.865 314.496 265.865 L 316.099 265.865 316.099 263.995 L 316.099 262.124 314.496 262.124 L 312.892 262.124 312.892 255.177 L 312.892 248.230 310.236 248.230 L 307.579 248.230 303.155 255.338 M328.264 251.978 C 330.692 254.259,330.494 264.699,327.981 266.906 C 324.281 270.154,321.023 263.613,322.481 255.862 C 323.263 251.704,326.009 249.859,328.264 251.978 M346.978 251.987 C 348.569 253.482,349.230 260.908,348.097 264.567 C 346.826 268.674,342.635 268.808,341.449 264.780 C 340.893 262.894,340.965 255.918,341.558 254.218 C 342.538 251.406,345.196 250.312,346.978 251.987 M308.884 257.425 L 308.884 262.077 305.878 262.175 C 304.225 262.229,302.851 262.268,302.824 262.262 C 302.757 262.245,308.735 252.786,308.818 252.779 C 308.854 252.775,308.884 254.866,308.884 257.425 M153.959 253.377 C 153.474 253.532,152.590 254.212,151.996 254.886 L 150.916 256.112 151.106 254.843 L 151.296 253.574 149.396 253.574 L 147.495 253.574 147.495 262.124 L 147.495 270.675 149.365 270.675 L 151.236 270.675 151.238 266.867 C 151.242 259.498,152.266 256.958,155.217 256.999 L 156.313 257.014 156.313 255.862 C 156.313 255.228,156.388 254.334,156.480 253.874 C 156.668 252.933,155.850 252.772,153.959 253.377 M163.081 253.534 C 159.713 254.698,158.108 257.277,157.959 261.766 C 157.731 268.620,160.153 271.116,166.799 270.876 C 171.673 270.700,172.173 270.489,171.937 268.704 C 171.702 266.925,171.594 266.842,170.189 267.359 C 166.067 268.873,162.306 267.340,161.986 264.015 L 161.856 262.659 167.234 262.659 L 172.612 262.659 172.612 260.837 C 172.612 254.972,168.356 251.711,163.081 253.534 M222.628 253.323 C 214.749 254.412,212.987 268.537,220.462 270.681 C 222.362 271.226,227.888 270.844,228.325 270.138 C 228.647 269.617,227.842 266.908,227.415 267.075 C 222.998 268.813,219.906 266.853,219.906 262.316 C 219.906 257.340,222.103 255.800,227.363 257.089 C 227.633 257.155,227.827 256.712,228.052 255.516 L 228.364 253.852 227.542 253.603 C 226.287 253.224,224.204 253.105,222.628 253.323 M255.818 253.276 C 248.941 255.054,247.597 267.345,253.956 270.306 C 255.591 271.067,260.197 271.200,262.619 270.555 C 264.390 270.083,264.296 270.199,264.097 268.745 C 263.853 266.961,263.738 266.860,262.472 267.306 C 257.928 268.909,254.604 267.534,253.983 263.794 L 253.794 262.659 259.332 262.659 L 264.870 262.659 264.726 260.321 C 264.397 254.967,260.671 252.021,255.818 253.276 M274.230 253.322 C 267.097 254.297,264.453 266.209,270.530 269.996 C 272.374 271.144,279.195 271.286,279.861 270.189 C 280.254 269.542,279.406 266.895,278.861 267.067 C 273.630 268.713,271.102 266.677,271.544 261.174 C 271.843 257.449,274.355 255.756,277.939 256.865 C 279.379 257.310,279.366 257.323,279.650 255.186 C 279.814 253.951,279.780 253.836,279.192 253.619 C 278.216 253.258,275.772 253.112,274.230 253.322 M388.192 253.396 C 381.633 255.249,380.327 267.075,386.336 270.197 C 388.086 271.106,392.893 271.278,395.438 270.522 L 396.850 270.103 396.663 268.585 C 396.429 266.699,396.561 266.789,394.874 267.358 C 390.535 268.820,387.024 267.361,386.697 263.961 L 386.572 262.659 391.982 262.659 L 397.392 262.659 397.277 260.187 C 397.027 254.830,393.212 251.979,388.192 253.396 M40.090 253.908 C 40.095 254.092,41.222 257.909,42.594 262.391 L 45.090 270.541 47.194 270.616 L 49.299 270.690 50.210 267.676 C 50.712 266.019,51.510 263.344,51.984 261.733 L 52.846 258.803 53.310 260.455 C 53.565 261.364,54.397 264.005,55.158 266.324 L 56.544 270.541 58.716 270.618 L 60.888 270.696 62.396 265.942 C 63.848 261.366,65.721 255.438,66.118 254.163 C 66.307 253.556,66.289 253.551,64.243 253.629 L 62.176 253.707 61.136 257.315 C 60.564 259.299,59.814 261.944,59.470 263.193 C 59.125 264.442,58.783 265.284,58.709 265.063 C 58.635 264.843,57.909 262.498,57.095 259.853 C 54.938 252.840,55.406 253.574,53.092 253.574 L 51.126 253.574 49.615 258.450 C 48.784 261.132,48.027 263.717,47.933 264.195 C 47.647 265.651,47.481 265.268,45.828 259.319 L 44.232 253.574 42.156 253.574 C 40.668 253.574,40.083 253.668,40.090 253.908 M67.439 254.041 C 67.517 254.299,68.667 258.095,69.996 262.478 C 71.324 266.861,72.411 270.499,72.411 270.561 C 72.411 270.624,73.368 270.675,74.537 270.675 L 76.662 270.675 76.909 269.806 C 78.610 263.839,80.192 258.956,80.308 259.319 C 80.354 259.466,81.188 262.086,82.160 265.141 L 83.928 270.696 86.114 270.618 L 88.300 270.541 90.894 262.391 C 92.320 257.909,93.494 254.092,93.504 253.908 C 93.516 253.669,92.950 253.574,91.516 253.574 C 90.414 253.574,89.512 253.628,89.512 253.694 C 89.512 254.844,86.078 265.457,85.937 264.742 C 85.841 264.257,85.021 261.542,84.114 258.707 L 82.465 253.553 80.455 253.630 L 78.444 253.707 77.555 256.513 C 77.066 258.056,76.273 260.730,75.792 262.455 L 74.919 265.591 73.494 260.451 C 72.710 257.624,71.959 254.920,71.826 254.442 L 71.585 253.574 69.442 253.574 C 67.525 253.574,67.314 253.623,67.439 254.041 M95.267 255.634 C 95.620 256.779,96.785 260.634,97.855 264.202 L 99.800 270.688 101.917 270.614 L 104.034 270.541 104.940 267.602 C 105.438 265.985,106.253 263.280,106.751 261.590 C 107.249 259.900,107.660 258.697,107.663 258.918 C 107.667 259.138,108.476 261.874,109.462 264.997 L 111.255 270.675 113.458 270.675 L 115.660 270.675 116.079 269.272 C 116.309 268.500,117.502 264.683,118.731 260.788 L 120.965 253.707 119.092 253.628 C 116.744 253.529,117.066 253.045,115.298 259.319 C 114.469 262.258,113.726 264.843,113.647 265.063 C 113.568 265.284,113.272 264.623,112.989 263.594 C 112.705 262.565,111.867 259.890,111.125 257.649 L 109.775 253.574 107.812 253.574 L 105.848 253.574 104.746 257.114 C 103.016 262.671,102.921 262.988,102.587 264.262 L 102.273 265.464 100.615 259.586 L 98.958 253.707 96.791 253.630 L 94.624 253.553 95.267 255.634 M195.591 262.124 L 195.591 270.675 197.462 270.675 L 199.332 270.675 199.332 262.124 L 199.332 253.574 197.462 253.574 L 195.591 253.574 195.591 262.124 M167.437 256.695 C 167.982 257.052,168.346 257.730,168.738 259.118 L 168.907 259.719 165.415 259.719 C 161.610 259.719,161.634 259.732,162.439 258.155 C 163.489 256.096,165.588 255.483,167.437 256.695 M259.454 256.576 C 260.124 256.995,260.788 258.214,260.788 259.026 L 260.788 259.719 257.419 259.719 L 254.050 259.719 254.225 258.985 C 254.792 256.599,257.496 255.353,259.454 256.576 M391.238 256.257 C 392.338 256.562,393.154 257.523,393.442 258.851 L 393.630 259.719 390.117 259.719 L 386.604 259.719 386.789 259.118 C 387.378 257.212,388.213 256.431,390.114 256.011 C 390.187 255.995,390.693 256.105,391.238 256.257 M185.872 256.513 C 187.212 256.513,186.651 264.440,185.178 266.319 C 182.496 269.739,179.021 267.158,179.353 261.991 C 179.602 258.105,181.564 255.960,184.469 256.397 C 184.891 256.461,185.523 256.513,185.872 256.513 M374.440 256.510 C 375.333 256.515,374.993 263.980,374.026 265.627 C 371.555 269.830,367.822 268.048,367.809 262.659 C 367.797 258.206,369.648 255.978,373.013 256.392 C 373.527 256.455,374.169 256.508,374.440 256.510 M121.698 266.788 C 120.160 268.326,121.201 270.942,123.350 270.942 C 124.857 270.942,125.422 270.642,125.845 269.621 C 126.898 267.081,123.634 264.852,121.698 266.788 M356.568 266.788 C 355.664 267.691,355.645 269.529,356.530 270.361 C 357.414 271.191,359.344 271.171,360.140 270.323 C 361.614 268.755,360.473 266.132,358.317 266.132 C 357.512 266.132,357.050 266.306,356.568 266.788 " stroke="none" fill="#2c2c4c" fill-rule="evenodd"></path></g></svg>