<svg id="svg" version="1.1" xmlns="http://www.w3.org/2000/svg" xmlns:xlink="http://www.w3.org/1999/xlink" width="400" height="74.3507972665148" viewBox="0, 0, 400,74.3507972665148"><g id="svgg"><path id="path0" d="M0.000 37.167 L 0.000 74.333 200.000 74.333 L 400.000 74.333 400.000 37.167 L 400.000 0.000 200.000 0.000 L 0.000 0.000 0.000 37.167 M326.835 12.794 C 330.812 13.823,333.623 15.282,336.768 17.950 L 337.864 18.880 339.614 18.016 C 344.366 15.671,345.384 15.732,347.848 18.512 C 351.476 22.604,353.392 27.113,352.208 28.775 C 351.556 29.692,350.891 29.833,347.247 29.833 C 345.461 29.833,344.000 29.890,344.000 29.958 C 344.000 30.027,344.121 30.683,344.269 31.417 C 344.926 34.673,344.527 39.509,343.317 42.936 C 343.039 43.723,342.835 44.386,342.864 44.408 C 343.756 45.104,344.654 45.378,345.197 45.120 C 346.086 44.698,347.000 44.609,347.750 44.872 C 348.352 45.082,361.413 52.637,362.846 53.603 C 365.511 55.400,364.422 60.651,361.122 61.911 C 359.259 62.622,359.148 62.578,350.751 57.827 C 341.794 52.759,341.667 52.661,341.667 50.853 C 341.667 50.245,341.605 50.157,340.846 49.690 L 340.026 49.186 339.355 50.051 C 332.579 58.794,319.194 61.140,309.458 55.292 C 293.651 45.798,294.670 22.595,311.250 14.489 C 316.029 12.153,321.893 11.515,326.835 12.794 M39.667 20.167 L 39.750 27.083 41.825 24.092 C 44.552 20.160,44.119 20.500,46.396 20.500 C 49.371 20.500,49.379 20.382,46.125 24.620 C 44.819 26.321,43.750 27.728,43.750 27.745 C 43.750 27.762,44.940 29.492,46.394 31.590 C 49.914 36.667,49.890 36.333,46.736 36.333 L 44.679 36.333 44.037 35.375 C 43.684 34.848,42.575 33.104,41.572 31.500 L 39.750 28.583 39.705 32.326 C 39.672 35.064,39.605 36.103,39.455 36.198 C 39.116 36.413,36.092 36.359,35.867 36.133 C 35.570 35.836,35.578 13.398,35.875 13.274 C 35.990 13.227,36.871 13.202,37.833 13.219 L 39.583 13.250 39.667 20.167 M89.736 13.268 C 90.112 13.412,90.142 35.841,89.767 36.153 C 89.616 36.278,88.981 36.329,87.975 36.298 L 86.417 36.250 86.367 35.116 L 86.318 33.981 85.568 34.816 C 82.297 38.453,76.971 36.689,75.888 31.610 C 74.547 25.320,78.216 20.333,84.184 20.333 L 86.000 20.333 86.000 16.950 C 86.000 14.541,86.058 13.509,86.200 13.367 C 86.409 13.157,89.242 13.078,89.736 13.268 M128.016 13.530 C 128.230 13.929,128.144 23.132,127.921 23.750 C 127.855 23.933,128.029 23.700,128.307 23.231 C 130.472 19.590,135.921 19.211,137.722 22.575 C 138.075 23.235,138.083 23.399,138.083 29.750 L 138.083 36.250 137.152 36.299 C 135.791 36.371,135.856 36.670,135.800 30.076 C 135.737 22.751,135.558 22.266,132.921 22.274 C 129.390 22.285,128.172 24.643,128.169 31.469 C 128.167 34.055,128.100 35.813,127.994 36.011 C 127.792 36.388,126.212 36.479,125.867 36.133 C 125.577 35.844,125.577 13.656,125.867 13.367 C 126.237 12.996,127.793 13.114,128.016 13.530 M170.811 13.390 C 170.939 13.544,171.010 15.762,171.040 20.530 L 171.083 27.448 173.583 24.466 C 177.167 20.192,176.839 20.500,177.812 20.500 C 179.726 20.500,179.654 20.684,176.174 24.641 C 174.348 26.717,173.534 27.760,173.637 27.891 C 180.696 36.844,180.417 36.333,178.237 36.333 L 177.182 36.333 174.091 32.227 L 171.000 28.120 171.000 32.027 C 171.000 34.843,170.944 35.989,170.800 36.133 C 170.454 36.479,168.874 36.388,168.673 36.011 C 168.409 35.519,168.436 13.631,168.700 13.367 C 168.975 13.091,170.578 13.109,170.811 13.390 M318.583 13.342 C 304.553 15.241,295.665 29.719,300.492 42.812 C 306.685 59.607,328.502 62.710,339.348 48.339 L 339.780 47.767 341.265 48.692 L 342.750 49.618 342.696 50.377 C 342.581 51.993,342.522 51.944,349.417 55.837 C 352.533 57.597,355.871 59.488,356.833 60.039 C 359.982 61.842,362.235 61.194,363.094 58.238 C 363.904 55.453,363.815 55.365,355.116 50.268 C 346.823 45.410,346.830 45.413,345.413 46.243 L 344.644 46.694 343.060 45.749 C 341.813 45.005,341.500 44.745,341.591 44.527 C 343.506 39.938,344.094 33.319,342.879 30.034 C 342.737 29.651,339.037 31.378,339.120 31.789 C 341.112 41.655,334.244 51.567,324.303 53.169 C 310.370 55.415,299.253 41.331,304.726 28.366 C 309.682 16.624,324.885 13.603,334.058 22.537 C 335.294 23.741,335.447 23.841,335.750 23.645 C 337.678 22.396,343.770 19.333,344.326 19.333 C 345.059 19.333,349.667 26.058,349.667 27.128 C 349.667 27.203,349.183 27.393,348.591 27.550 C 347.999 27.708,346.930 28.057,346.216 28.326 L 344.917 28.814 347.417 28.823 C 350.097 28.832,351.063 28.671,351.331 28.170 C 352.436 26.107,346.800 17.333,344.370 17.333 C 343.688 17.333,341.716 18.118,339.468 19.284 L 337.685 20.208 336.234 18.935 C 331.283 14.595,324.712 12.513,318.583 13.342 M96.655 13.577 C 98.997 14.788,98.146 18.167,95.500 18.167 C 93.624 18.167,92.503 16.334,93.366 14.679 C 93.994 13.474,95.488 12.974,96.655 13.577 M105.633 15.033 C 105.772 15.172,105.833 16.041,105.833 17.867 L 105.833 20.500 107.488 20.500 C 109.556 20.500,109.667 20.584,109.667 22.145 C 109.667 23.630,109.615 23.667,107.542 23.667 L 105.818 23.667 105.867 28.015 L 105.917 32.363 106.384 32.765 C 106.787 33.111,107.022 33.167,108.083 33.167 C 109.521 33.167,109.472 33.118,109.605 34.698 C 109.733 36.210,109.699 36.245,107.841 36.499 C 105.541 36.814,103.766 36.477,102.788 35.540 C 101.941 34.729,101.833 33.937,101.833 28.553 L 101.833 23.667 100.617 23.667 C 99.091 23.667,99.000 23.576,99.000 22.056 C 99.000 20.603,99.115 20.500,100.739 20.500 L 101.833 20.500 101.833 18.090 L 101.833 15.680 102.458 15.516 C 102.802 15.425,103.496 15.242,104.000 15.108 C 105.165 14.798,105.387 14.787,105.633 15.033 M207.579 15.846 C 213.075 17.903,213.801 31.092,208.643 35.169 C 205.988 37.269,201.296 37.076,199.223 34.782 C 196.447 31.708,196.053 22.838,198.512 18.746 C 200.285 15.796,204.146 14.561,207.579 15.846 M224.079 15.846 C 227.223 17.023,228.604 20.308,228.453 26.250 C 228.267 33.583,224.998 37.342,219.503 36.541 C 215.694 35.985,213.995 33.617,213.493 28.167 C 212.645 18.950,217.445 13.363,224.079 15.846 M192.967 15.867 C 193.115 16.015,193.167 17.633,193.167 22.117 L 193.167 28.167 194.659 28.167 L 196.152 28.167 196.247 28.792 C 196.300 29.135,196.439 29.960,196.555 30.625 L 196.768 31.833 194.967 31.833 L 193.167 31.833 193.167 33.883 C 193.167 36.401,193.222 36.333,191.167 36.333 C 189.111 36.333,189.167 36.401,189.167 33.883 L 189.167 31.833 184.854 31.833 C 179.861 31.833,180.257 31.988,180.004 29.947 L 179.823 28.489 182.352 24.370 C 187.091 16.650,187.551 15.917,187.734 15.794 C 188.055 15.579,192.744 15.644,192.967 15.867 M203.417 18.992 C 201.865 19.634,201.252 22.005,201.374 26.889 C 201.487 31.414,202.049 32.812,203.864 33.084 C 206.712 33.511,207.839 31.033,207.618 24.833 C 207.439 19.820,206.058 17.900,203.417 18.992 M220.000 18.951 C 218.538 19.485,217.841 21.720,217.836 25.885 C 217.830 31.371,218.559 33.075,220.914 33.081 C 223.392 33.087,224.290 30.822,224.118 25.000 C 223.967 19.857,222.682 17.970,220.000 18.951 M186.638 23.917 L 184.026 28.083 186.620 28.129 C 188.046 28.155,189.242 28.147,189.276 28.112 C 189.311 28.078,189.319 26.182,189.295 23.900 L 189.250 19.750 186.638 23.917 M59.570 20.268 C 59.785 20.351,59.833 20.667,59.833 22.006 C 59.833 23.954,59.705 24.167,58.527 24.167 C 56.124 24.167,55.341 26.153,55.336 32.258 C 55.333 36.614,55.471 36.333,53.333 36.333 C 51.133 36.333,51.333 37.126,51.333 28.417 C 51.333 19.769,51.168 20.500,53.128 20.500 C 55.240 20.500,55.471 20.880,54.898 23.417 C 54.857 23.600,54.986 23.450,55.186 23.083 C 55.386 22.717,55.737 22.169,55.967 21.867 C 56.754 20.833,58.742 19.950,59.570 20.268 M70.452 20.705 C 72.989 21.666,74.596 24.807,74.249 28.125 L 74.140 29.167 69.240 29.167 L 64.340 29.167 64.436 29.958 C 64.823 33.118,67.608 34.208,72.026 32.929 L 73.302 32.559 73.484 33.786 C 73.767 35.689,73.823 35.572,72.436 35.984 C 65.154 38.145,60.333 35.226,60.333 28.654 C 60.333 22.370,65.055 18.662,70.452 20.705 M122.333 20.706 L 123.083 20.937 123.073 21.721 C 123.057 22.853,122.899 22.944,121.523 22.612 C 116.926 21.502,114.333 23.684,114.333 28.662 C 114.333 33.347,117.434 35.604,121.808 34.102 C 122.899 33.727,123.163 33.897,123.216 35.007 L 123.250 35.737 122.167 36.060 C 119.290 36.916,115.582 36.431,113.937 34.983 C 110.453 31.916,111.388 23.504,115.459 21.288 C 117.219 20.331,120.270 20.072,122.333 20.706 M150.260 21.000 C 152.243 22.013,153.196 23.752,153.231 26.417 L 153.250 27.917 148.019 27.961 L 142.788 28.005 142.870 29.577 C 143.089 33.761,146.177 35.507,150.984 34.163 C 152.347 33.782,152.457 33.819,152.661 34.724 C 152.840 35.516,152.639 35.737,151.430 36.080 C 143.788 38.244,138.779 33.530,140.585 25.872 C 141.675 21.249,146.245 18.948,150.260 21.000 M164.533 20.511 C 166.231 20.851,166.382 20.959,166.259 21.736 C 166.087 22.823,165.886 22.929,164.603 22.607 C 160.528 21.583,157.968 23.265,157.532 27.253 C 156.918 32.869,159.555 35.453,164.589 34.165 C 166.036 33.795,166.125 33.826,166.337 34.766 C 166.604 35.950,165.349 36.410,161.833 36.414 C 157.058 36.420,154.928 34.102,154.946 28.917 C 154.968 22.777,158.853 19.370,164.533 20.511 M97.293 20.638 C 97.458 20.743,97.494 22.430,97.460 28.511 L 97.417 36.250 95.691 36.298 C 94.562 36.329,93.885 36.279,93.733 36.152 C 93.415 35.889,93.384 21.016,93.700 20.700 C 93.927 20.473,96.951 20.421,97.293 20.638 M242.967 20.700 C 243.255 20.988,243.255 35.845,242.967 36.133 C 242.857 36.243,242.334 36.333,241.806 36.333 C 240.703 36.333,240.484 36.118,240.627 35.176 L 240.714 34.601 240.150 35.243 C 237.903 37.803,234.091 36.504,233.496 32.976 C 232.739 28.491,235.378 25.108,239.435 25.361 L 240.334 25.417 240.334 23.281 C 240.333 20.579,240.373 20.500,241.723 20.500 C 242.312 20.500,242.854 20.587,242.967 20.700 M146.214 22.176 C 144.651 22.483,143.392 23.903,142.934 25.875 L 142.827 26.333 146.853 26.333 L 150.880 26.333 150.787 25.435 C 150.545 23.086,148.606 21.705,146.214 22.176 M66.417 23.404 C 65.709 23.721,65.178 24.273,64.818 25.066 C 64.222 26.378,64.129 26.333,67.424 26.333 L 70.348 26.333 70.235 25.708 C 69.869 23.692,68.124 22.639,66.417 23.404 M82.249 23.811 C 79.159 25.214,79.052 32.577,82.111 33.239 C 84.561 33.770,85.864 31.599,85.965 26.816 L 86.030 23.715 85.390 23.609 C 84.224 23.417,82.934 23.499,82.249 23.811 M251.442 25.582 C 253.340 26.145,254.781 28.861,254.267 30.907 L 254.160 31.333 250.923 31.333 C 247.350 31.333,247.453 31.301,247.687 32.342 C 248.078 34.084,250.032 34.809,252.406 34.095 C 253.389 33.799,253.630 33.885,253.760 34.578 C 254.023 35.977,253.527 36.277,250.661 36.449 C 247.151 36.660,245.229 35.237,244.870 32.161 C 244.319 27.446,247.385 24.377,251.442 25.582 M248.716 27.651 C 248.179 27.988,247.667 28.764,247.667 29.242 C 247.667 29.460,247.963 29.500,249.583 29.500 L 251.500 29.500 251.500 29.003 C 251.500 27.759,249.834 26.950,248.716 27.651 M238.107 27.664 C 236.665 28.119,235.943 30.342,236.437 32.810 C 236.812 34.684,239.054 34.658,239.933 32.770 C 240.464 31.630,240.548 27.668,240.042 27.665 C 239.881 27.664,239.487 27.629,239.167 27.588 C 238.846 27.547,238.369 27.581,238.107 27.664 M231.600 33.567 C 232.779 34.746,232.007 36.500,230.309 36.500 C 229.568 36.500,228.667 35.561,228.667 34.789 C 228.667 33.216,230.489 32.456,231.600 33.567 M262.195 38.838 C 264.487 39.475,264.902 40.641,265.178 47.208 C 265.421 52.968,265.391 53.232,264.365 54.370 C 263.109 55.765,263.407 55.720,252.333 56.170 C 247.887 56.351,242.675 56.575,240.750 56.669 C 238.825 56.762,232.862 57.024,227.500 57.251 C 217.180 57.689,210.884 57.963,198.833 58.501 C 194.754 58.683,187.817 58.980,183.417 59.162 C 179.017 59.344,174.704 59.535,173.833 59.586 C 172.963 59.637,167.975 59.861,162.750 60.083 C 157.525 60.305,149.483 60.651,144.880 60.851 C 132.844 61.375,133.329 61.703,132.927 52.758 C 132.639 46.343,132.821 45.588,134.892 44.598 C 135.965 44.085,135.879 44.091,148.250 43.578 C 153.750 43.350,159.787 43.089,161.667 42.999 C 163.546 42.909,168.721 42.687,173.167 42.505 C 177.612 42.324,181.963 42.133,182.833 42.082 C 184.341 41.993,196.166 41.478,217.167 40.586 C 222.438 40.362,227.463 40.137,228.333 40.086 C 229.204 40.034,234.417 39.802,239.917 39.571 C 245.417 39.340,251.942 39.052,254.417 38.931 C 260.251 38.647,261.454 38.633,262.195 38.838 M244.522 43.120 L 244.128 43.195 244.235 45.806 C 244.293 47.242,244.386 49.035,244.440 49.792 L 244.539 51.167 245.128 51.167 L 245.716 51.167 245.613 49.833 C 245.488 48.213,245.446 48.217,246.600 49.750 C 247.526 50.981,247.552 51.000,248.291 51.000 C 248.865 51.000,249.003 50.951,248.881 50.792 C 248.794 50.677,248.297 50.050,247.778 49.398 C 246.642 47.973,246.652 48.203,247.667 46.833 C 248.667 45.485,248.664 45.500,247.858 45.500 C 247.247 45.500,247.176 45.559,246.399 46.708 L 245.583 47.917 245.435 45.458 C 245.336 43.835,245.223 43.008,245.101 43.023 C 245.000 43.035,244.739 43.079,244.522 43.120 M226.858 44.451 L 225.800 44.517 225.906 47.717 C 225.965 49.477,226.053 51.171,226.101 51.481 L 226.190 52.045 227.658 51.961 C 229.896 51.834,231.000 51.030,231.000 49.529 C 231.000 48.982,230.295 48.000,229.902 48.000 C 229.590 48.000,229.600 47.728,229.917 47.606 C 230.430 47.409,230.743 46.411,230.522 45.673 C 230.207 44.623,229.250 44.303,226.858 44.451 M218.509 45.282 C 216.114 46.537,216.848 52.122,219.429 52.288 C 221.305 52.409,222.167 51.317,222.166 48.822 C 222.164 45.652,220.632 44.170,218.509 45.282 M257.500 45.117 C 257.362 45.167,257.044 45.400,256.792 45.635 L 256.333 46.062 256.333 45.615 C 256.333 45.217,256.270 45.167,255.774 45.167 L 255.214 45.167 255.280 47.208 C 255.388 50.562,255.413 50.667,256.101 50.667 L 256.682 50.667 256.580 49.042 C 256.462 47.167,256.721 46.379,257.550 46.092 C 258.538 45.749,258.782 46.287,258.814 48.875 L 258.833 50.500 259.417 50.500 L 260.000 50.500 259.988 48.958 C 259.960 45.420,259.332 44.451,257.500 45.117 M213.028 45.330 C 210.355 45.971,210.394 52.090,213.074 52.593 C 215.132 52.979,216.289 51.414,216.124 48.469 C 215.986 46.011,214.878 44.887,213.028 45.330 M229.083 45.667 C 229.917 46.359,228.934 47.667,227.580 47.667 C 227.123 47.667,226.788 45.745,227.197 45.468 C 227.489 45.270,228.768 45.405,229.083 45.667 M250.833 45.451 C 248.934 46.145,248.771 49.879,250.602 50.748 C 251.278 51.069,252.972 51.039,253.615 50.694 C 254.051 50.461,253.961 49.574,253.520 49.764 C 252.216 50.324,250.821 49.922,250.568 48.913 C 250.423 48.336,250.378 48.354,252.303 48.228 L 254.000 48.117 254.000 47.550 C 254.000 45.956,252.383 44.884,250.833 45.451 M207.965 45.619 C 207.301 45.720,204.755 50.095,204.920 50.850 L 205.030 51.351 206.574 51.238 L 208.118 51.125 208.233 51.994 C 208.325 52.681,208.402 52.842,208.605 52.765 C 208.745 52.711,209.003 52.667,209.177 52.667 C 209.456 52.667,209.481 52.578,209.392 51.929 L 209.291 51.191 209.854 51.137 C 210.727 51.054,210.818 50.000,209.952 50.000 L 209.383 50.000 209.276 48.625 C 209.217 47.869,209.168 46.856,209.168 46.375 C 209.167 45.423,209.182 45.433,207.965 45.619 M240.025 45.949 C 239.719 46.100,239.429 46.324,239.383 46.445 C 239.245 46.805,239.000 46.698,239.000 46.279 C 239.000 45.939,238.935 45.901,238.478 45.968 L 237.956 46.044 238.076 48.731 C 238.142 50.208,238.208 51.427,238.223 51.439 C 238.238 51.451,238.494 51.423,238.792 51.378 L 239.333 51.296 239.333 49.468 C 239.333 47.671,239.341 47.633,239.821 47.154 C 240.913 46.061,241.499 46.703,241.502 48.995 C 241.505 51.242,241.764 51.763,242.600 51.206 C 242.802 51.071,242.646 46.994,242.418 46.452 C 242.117 45.735,240.955 45.491,240.025 45.949 M220.527 46.501 C 221.226 47.441,221.078 50.768,220.319 51.174 C 219.298 51.721,218.601 50.928,218.406 49.000 C 218.162 46.576,219.453 45.055,220.527 46.501 M232.918 46.217 C 232.251 46.427,232.047 46.731,232.306 47.131 C 232.410 47.293,232.557 47.304,232.900 47.173 C 233.705 46.867,234.617 46.956,234.907 47.370 C 235.364 48.023,235.247 48.333,234.542 48.337 C 233.182 48.345,232.000 49.241,232.000 50.265 C 232.000 51.740,233.757 52.252,234.958 51.127 L 235.333 50.775 235.333 51.138 C 235.333 51.440,235.429 51.500,235.915 51.500 L 236.497 51.500 236.406 49.708 C 236.281 47.238,236.221 46.942,235.749 46.499 C 235.250 46.030,233.929 45.899,232.918 46.217 M214.246 46.542 C 215.451 47.591,215.054 51.667,213.747 51.667 C 212.188 51.667,211.742 46.934,213.244 46.325 C 213.740 46.124,213.774 46.132,214.246 46.542 M252.494 46.531 C 253.007 47.083,252.910 47.278,252.060 47.394 C 250.399 47.622,250.086 47.399,250.909 46.576 C 251.416 46.069,252.046 46.051,252.494 46.531 M174.792 46.860 C 174.369 47.015,174.333 47.097,174.333 47.931 C 174.333 48.823,174.327 48.833,173.833 48.833 C 173.411 48.833,173.333 48.898,173.333 49.250 C 173.333 49.598,173.412 49.667,173.816 49.667 C 174.430 49.667,174.500 49.865,174.500 51.602 C 174.500 53.926,174.940 54.488,176.570 54.243 C 177.235 54.144,177.268 54.113,177.199 53.644 C 177.135 53.209,177.073 53.160,176.688 53.241 C 175.896 53.407,175.768 53.165,175.696 51.368 L 175.630 49.715 176.315 49.606 C 177.393 49.433,177.340 48.667,176.250 48.667 L 175.500 48.667 175.500 47.667 C 175.500 47.117,175.444 46.673,175.375 46.680 C 175.306 46.687,175.044 46.768,174.792 46.860 M208.150 48.958 L 208.167 50.167 207.167 50.167 C 205.961 50.167,205.970 50.283,207.042 48.474 C 208.037 46.794,208.121 46.830,208.150 48.958 M354.252 50.764 C 361.233 54.807,361.147 54.753,360.908 54.992 C 360.806 55.094,360.262 54.869,359.416 54.377 C 348.741 48.172,347.235 47.333,346.761 47.331 C 346.370 47.329,346.309 47.290,346.500 47.167 C 347.174 46.731,347.754 47.000,354.252 50.764 M158.608 47.454 L 157.466 47.516 157.571 49.966 C 157.628 51.314,157.720 53.008,157.774 53.730 L 157.872 55.044 159.314 54.962 C 160.990 54.866,162.017 54.439,162.413 53.673 C 162.906 52.720,162.647 51.546,161.857 51.149 C 161.615 51.027,161.386 50.908,161.350 50.883 C 161.313 50.858,161.479 50.684,161.718 50.495 C 162.565 49.829,162.448 48.237,161.518 47.762 C 160.956 47.474,160.032 47.377,158.608 47.454 M199.083 47.731 C 197.450 48.443,197.724 50.119,199.583 50.791 C 201.126 51.348,200.626 52.524,198.958 52.261 C 198.353 52.166,198.333 52.178,198.333 52.665 L 198.333 53.167 199.355 53.167 C 200.619 53.167,201.392 52.748,201.667 51.914 C 201.998 50.912,201.585 50.392,199.958 49.760 C 198.755 49.292,199.393 48.137,200.696 48.423 C 201.133 48.519,201.167 48.490,201.167 48.013 C 201.167 47.425,200.113 47.282,199.083 47.731 M192.458 47.953 C 191.932 48.032,191.929 48.056,192.146 50.954 C 192.336 53.492,193.688 54.349,195.237 52.914 L 195.667 52.516 195.667 52.925 C 195.667 53.266,195.748 53.333,196.157 53.333 C 196.847 53.333,196.851 53.312,196.727 50.428 L 196.615 47.833 196.072 47.833 L 195.529 47.833 195.473 49.765 C 195.418 51.644,195.404 51.707,194.949 52.098 C 193.998 52.915,193.334 52.477,193.332 51.030 C 193.331 49.738,193.141 47.828,193.018 47.858 C 192.962 47.872,192.710 47.915,192.458 47.953 M187.000 48.223 C 186.348 48.394,186.256 48.473,186.295 48.825 C 186.357 49.376,186.404 49.399,187.016 49.186 C 188.234 48.761,189.167 49.083,189.167 49.929 C 189.167 50.259,189.082 50.334,188.708 50.334 C 186.905 50.338,185.651 51.588,186.176 52.857 C 186.590 53.856,188.035 54.052,188.923 53.230 C 189.434 52.756,189.470 52.749,189.440 53.125 C 189.423 53.341,189.564 53.431,189.984 53.471 L 190.551 53.525 190.435 51.321 C 190.265 48.105,189.631 47.534,187.000 48.223 M138.354 48.291 L 137.291 48.350 137.400 50.883 C 137.459 52.277,137.553 53.971,137.609 54.648 L 137.710 55.880 139.192 55.784 C 141.821 55.614,143.121 54.693,143.481 52.746 C 143.967 50.117,142.233 47.984,139.783 48.199 C 139.582 48.216,138.938 48.258,138.354 48.291 M160.750 48.667 C 161.510 49.297,160.851 50.435,159.629 50.603 L 158.865 50.708 158.805 49.645 C 158.771 49.049,158.819 48.525,158.914 48.451 C 159.152 48.265,160.450 48.417,160.750 48.667 M179.607 48.497 C 177.660 49.111,177.327 52.615,179.105 53.780 C 180.099 54.431,182.687 54.017,182.537 53.231 C 182.472 52.891,182.386 52.826,182.103 52.907 C 180.424 53.389,179.167 52.901,179.167 51.769 C 179.167 51.346,179.169 51.345,180.875 51.297 C 182.837 51.243,182.952 51.128,182.422 49.742 C 182.004 48.646,180.810 48.118,179.607 48.497 M229.079 48.695 C 229.941 49.088,229.839 50.375,228.916 50.761 C 227.523 51.343,227.167 51.031,227.167 49.229 L 227.167 48.500 227.909 48.500 C 228.317 48.500,228.844 48.588,229.079 48.695 M169.988 49.211 C 168.745 50.049,168.988 51.343,170.502 51.946 C 172.129 52.594,172.098 53.379,170.441 53.467 C 169.044 53.541,168.949 54.500,170.339 54.500 C 173.095 54.500,174.027 52.065,171.600 51.203 C 170.111 50.674,170.111 49.819,171.600 49.667 C 172.290 49.596,172.425 49.525,172.470 49.208 C 172.549 48.653,170.813 48.655,169.988 49.211 M165.069 49.237 C 163.195 50.053,163.040 53.544,164.838 54.453 C 165.862 54.972,168.058 54.624,168.138 53.931 C 168.192 53.464,168.185 53.460,167.555 53.598 C 165.915 53.958,164.833 53.484,164.833 52.407 C 164.833 52.012,164.870 52.000,166.063 52.000 C 168.461 52.000,168.712 51.767,168.002 50.202 C 167.511 49.120,166.273 48.713,165.069 49.237 M235.167 49.404 C 235.167 50.316,233.909 51.175,233.367 50.633 C 232.793 50.060,233.244 49.398,234.357 49.179 C 234.757 49.101,235.102 49.028,235.125 49.018 C 235.148 49.008,235.167 49.182,235.167 49.404 M141.288 49.598 C 143.396 50.952,142.188 54.666,139.639 54.666 L 138.862 54.667 138.768 53.458 C 138.493 49.916,138.523 49.356,138.989 49.277 C 139.656 49.164,140.878 49.335,141.288 49.598 M181.126 49.542 C 181.738 50.307,181.580 50.500,180.345 50.500 C 179.053 50.500,178.859 50.308,179.500 49.667 C 179.877 49.290,180.864 49.214,181.126 49.542 M151.917 49.655 C 149.794 50.167,149.659 52.080,151.693 52.831 C 153.436 53.474,153.070 54.486,151.160 54.304 C 150.496 54.241,150.485 54.248,150.534 54.745 C 150.580 55.214,150.635 55.254,151.322 55.303 C 154.048 55.497,155.058 52.828,152.574 51.997 C 151.076 51.496,151.116 50.623,152.642 50.533 C 153.415 50.488,153.500 50.444,153.500 50.094 C 153.500 49.554,152.959 49.403,151.917 49.655 M145.500 50.047 C 144.894 50.213,144.761 50.316,144.806 50.584 C 144.891 51.095,145.071 51.195,145.567 51.006 C 146.738 50.561,147.667 50.868,147.667 51.700 C 147.667 52.102,147.601 52.167,147.192 52.167 C 145.802 52.167,144.667 53.030,144.667 54.085 C 144.667 55.600,146.675 56.139,147.659 54.888 L 148.000 54.455 148.000 54.894 C 148.000 55.271,148.071 55.333,148.500 55.333 L 149.000 55.333 148.990 53.792 C 148.966 50.130,148.202 49.310,145.500 50.047 M166.774 50.226 C 167.451 50.903,167.237 51.167,166.011 51.167 C 164.795 51.167,164.684 51.091,165.011 50.480 C 165.338 49.869,166.281 49.733,166.774 50.226 M189.167 51.591 C 189.167 52.481,187.844 53.199,187.335 52.585 C 186.828 51.974,187.537 51.201,188.625 51.178 C 189.097 51.168,189.167 51.221,189.167 51.591 M160.842 51.754 C 161.516 52.103,161.559 53.178,160.914 53.600 C 160.161 54.094,159.000 54.122,158.999 53.647 C 158.998 53.429,158.950 52.856,158.892 52.375 L 158.787 51.500 159.568 51.500 C 159.998 51.500,160.571 51.614,160.842 51.754 M147.833 53.072 C 147.833 54.304,146.091 55.242,145.757 54.190 C 145.555 53.552,146.029 53.134,147.167 52.947 C 147.396 52.910,147.640 52.869,147.708 52.856 C 147.777 52.844,147.833 52.941,147.833 53.072 " stroke="none" fill="#fbab3c" fill-rule="evenodd"></path><path id="path1" d="M317.583 12.415 C 299.617 15.595,292.059 36.589,303.843 50.583 C 312.897 61.336,330.817 61.067,339.355 50.051 L 340.026 49.186 340.846 49.690 C 341.605 50.157,341.667 50.245,341.667 50.853 C 341.667 52.661,341.794 52.759,350.751 57.827 C 359.148 62.578,359.259 62.622,361.122 61.911 C 364.422 60.651,365.511 55.400,362.846 53.603 C 361.413 52.637,348.352 45.082,347.750 44.872 C 347.000 44.609,346.086 44.698,345.197 45.120 C 344.654 45.378,343.756 45.104,342.864 44.408 C 342.835 44.386,343.039 43.723,343.317 42.936 C 344.527 39.509,344.926 34.673,344.269 31.417 C 344.121 30.683,344.000 30.027,344.000 29.958 C 344.000 29.890,345.461 29.833,347.247 29.833 C 350.891 29.833,351.556 29.692,352.208 28.775 C 353.392 27.113,351.476 22.604,347.848 18.512 C 345.384 15.732,344.366 15.671,339.614 18.016 L 337.864 18.880 336.768 17.950 C 331.342 13.347,324.109 11.260,317.583 12.415 M35.875 13.274 C 35.578 13.398,35.570 35.836,35.867 36.133 C 36.092 36.359,39.116 36.413,39.455 36.198 C 39.605 36.103,39.672 35.064,39.705 32.326 L 39.750 28.583 41.572 31.500 C 42.575 33.104,43.684 34.848,44.037 35.375 L 44.679 36.333 46.736 36.333 C 49.890 36.333,49.914 36.667,46.394 31.590 C 44.940 29.492,43.750 27.762,43.750 27.745 C 43.750 27.728,44.819 26.321,46.125 24.620 C 49.379 20.382,49.371 20.500,46.396 20.500 C 44.119 20.500,44.552 20.160,41.825 24.092 L 39.750 27.083 39.667 20.167 L 39.583 13.250 37.833 13.219 C 36.871 13.202,35.990 13.227,35.875 13.274 M86.200 13.367 C 86.058 13.509,86.000 14.541,86.000 16.950 L 86.000 20.333 84.184 20.333 C 78.216 20.333,74.547 25.320,75.888 31.610 C 76.971 36.689,82.297 38.453,85.568 34.816 L 86.318 33.981 86.367 35.116 L 86.417 36.250 87.975 36.298 C 88.981 36.329,89.616 36.278,89.767 36.153 C 90.142 35.841,90.112 13.412,89.736 13.268 C 89.242 13.078,86.409 13.157,86.200 13.367 M326.167 13.732 C 330.039 14.622,333.144 16.227,336.234 18.935 L 337.685 20.208 339.468 19.284 C 341.716 18.118,343.688 17.333,344.370 17.333 C 346.800 17.333,352.436 26.107,351.331 28.170 C 351.063 28.671,350.097 28.832,347.417 28.823 L 344.917 28.814 346.216 28.326 C 346.930 28.057,347.999 27.708,348.591 27.550 C 349.183 27.393,349.667 27.203,349.667 27.128 C 349.667 26.058,345.059 19.333,344.326 19.333 C 343.770 19.333,337.678 22.396,335.750 23.645 C 335.447 23.841,335.294 23.741,334.058 22.537 C 327.825 16.467,318.424 15.599,311.236 20.431 C 299.892 28.057,301.013 45.329,313.247 51.420 C 326.695 58.114,342.079 46.442,339.120 31.789 C 339.037 31.378,342.737 29.651,342.879 30.034 C 344.094 33.319,343.506 39.938,341.591 44.527 C 341.500 44.745,341.813 45.005,343.060 45.749 L 344.644 46.694 345.413 46.243 C 346.830 45.413,346.823 45.410,355.116 50.268 C 363.815 55.365,363.904 55.453,363.094 58.238 C 362.235 61.194,359.982 61.842,356.833 60.039 C 355.871 59.488,352.533 57.597,349.417 55.837 C 342.522 51.944,342.581 51.993,342.696 50.377 L 342.750 49.618 341.265 48.692 L 339.780 47.767 339.348 48.339 C 327.646 63.844,303.692 58.685,299.639 39.785 C 296.323 24.325,310.724 10.182,326.167 13.732 M94.331 13.637 C 93.532 14.055,92.947 15.192,93.080 16.066 C 93.534 19.058,98.000 18.772,98.000 15.750 C 98.000 13.877,96.035 12.745,94.331 13.637 M104.000 15.108 C 103.496 15.242,102.802 15.425,102.458 15.516 L 101.833 15.680 101.833 18.090 L 101.833 20.500 100.739 20.500 C 99.115 20.500,99.000 20.603,99.000 22.056 C 99.000 23.576,99.091 23.667,100.617 23.667 L 101.833 23.667 101.833 28.553 C 101.833 33.937,101.941 34.729,102.788 35.540 C 103.766 36.477,105.541 36.814,107.841 36.499 C 109.699 36.245,109.733 36.210,109.605 34.698 C 109.472 33.118,109.521 33.167,108.083 33.167 C 107.022 33.167,106.787 33.111,106.384 32.765 L 105.917 32.363 105.867 28.015 L 105.818 23.667 107.542 23.667 C 109.615 23.667,109.667 23.630,109.667 22.145 C 109.667 20.584,109.556 20.500,107.488 20.500 L 105.833 20.500 105.833 17.867 C 105.833 14.581,105.855 14.614,104.000 15.108 M325.555 19.726 C 328.322 20.509,330.616 21.821,332.712 23.820 L 333.871 24.925 332.810 25.668 C 329.820 27.762,325.494 31.857,322.599 35.334 C 321.000 37.255,321.202 37.185,320.500 36.065 C 319.726 34.831,317.423 32.643,315.667 31.472 C 313.747 30.193,311.671 29.092,311.513 29.271 C 310.983 29.871,306.795 35.514,306.849 35.556 C 306.886 35.586,307.517 35.817,308.250 36.070 C 313.068 37.732,318.052 41.285,320.930 45.108 C 322.034 46.575,321.872 46.566,323.000 45.219 C 327.115 40.302,336.971 31.959,337.386 33.041 C 337.623 33.659,337.404 38.117,337.076 39.333 C 332.176 57.533,305.343 54.229,305.271 35.417 C 305.231 24.707,315.389 16.849,325.555 19.726 M58.389 20.327 C 57.090 20.636,56.014 21.562,55.186 23.083 C 54.986 23.450,54.857 23.600,54.898 23.417 C 55.471 20.880,55.240 20.500,53.128 20.500 C 51.168 20.500,51.333 19.769,51.333 28.417 C 51.333 37.126,51.133 36.333,53.333 36.333 C 55.471 36.333,55.333 36.614,55.336 32.258 C 55.341 26.153,56.124 24.167,58.527 24.167 C 59.705 24.167,59.833 23.954,59.833 22.006 C 59.833 20.069,59.771 19.997,58.389 20.327 M66.145 20.326 C 62.530 20.985,60.333 24.133,60.333 28.654 C 60.333 35.226,65.154 38.145,72.436 35.984 C 73.823 35.572,73.767 35.689,73.484 33.786 L 73.302 32.559 72.026 32.929 C 67.608 34.208,64.823 33.118,64.436 29.958 L 64.340 29.167 69.240 29.167 L 74.140 29.167 74.249 28.125 C 74.787 22.987,71.086 19.426,66.145 20.326 M93.700 20.700 C 93.384 21.016,93.415 35.889,93.733 36.152 C 93.885 36.279,94.562 36.329,95.691 36.298 L 97.417 36.250 97.460 28.511 C 97.494 22.430,97.458 20.743,97.293 20.638 C 96.951 20.421,93.927 20.473,93.700 20.700 M68.782 23.491 C 69.540 23.835,70.031 24.585,70.235 25.708 L 70.348 26.333 67.424 26.333 C 64.129 26.333,64.222 26.378,64.818 25.066 C 65.578 23.391,67.170 22.759,68.782 23.491 M85.390 23.609 L 86.030 23.715 85.965 26.816 C 85.877 30.992,85.168 32.673,83.282 33.180 C 81.433 33.678,80.305 32.556,80.012 29.926 C 79.493 25.263,81.455 22.959,85.390 23.609 M254.417 38.931 C 251.942 39.052,245.417 39.340,239.917 39.571 C 234.417 39.802,229.204 40.034,228.333 40.086 C 227.463 40.137,222.438 40.362,217.167 40.586 C 196.166 41.478,184.341 41.993,182.833 42.082 C 181.963 42.133,177.612 42.324,173.167 42.505 C 168.721 42.687,163.546 42.909,161.667 42.999 C 159.787 43.089,153.750 43.350,148.250 43.578 C 135.879 44.091,135.965 44.085,134.892 44.598 C 132.821 45.588,132.639 46.343,132.927 52.758 C 133.181 58.406,133.277 58.933,134.238 59.920 C 135.566 61.287,135.336 61.267,144.880 60.851 C 149.483 60.651,157.525 60.305,162.750 60.083 C 167.975 59.861,172.963 59.637,173.833 59.586 C 174.704 59.535,179.017 59.344,183.417 59.162 C 187.817 58.980,194.754 58.683,198.833 58.501 C 210.884 57.963,217.180 57.689,227.500 57.251 C 232.862 57.024,238.825 56.762,240.750 56.669 C 242.675 56.575,247.887 56.351,252.333 56.170 C 263.407 55.720,263.109 55.765,264.365 54.370 C 265.391 53.232,265.421 52.968,265.178 47.208 C 264.926 41.189,264.856 40.851,263.651 39.767 C 262.293 38.546,262.302 38.547,254.417 38.931 M245.435 45.458 L 245.583 47.917 246.399 46.708 C 247.176 45.559,247.247 45.500,247.858 45.500 C 248.664 45.500,248.667 45.485,247.667 46.833 C 246.652 48.203,246.642 47.973,247.778 49.398 C 248.297 50.050,248.794 50.677,248.881 50.792 C 249.003 50.951,248.865 51.000,248.291 51.000 C 247.552 51.000,247.526 50.981,246.600 49.750 C 245.446 48.217,245.488 48.213,245.613 49.833 L 245.716 51.167 245.128 51.167 L 244.539 51.167 244.440 49.792 C 244.386 49.035,244.293 47.242,244.235 45.806 L 244.128 43.195 244.522 43.120 C 244.739 43.079,245.000 43.035,245.101 43.023 C 245.223 43.008,245.336 43.835,245.435 45.458 M229.866 44.767 C 230.795 45.248,230.831 47.255,229.917 47.606 C 229.600 47.728,229.590 48.000,229.902 48.000 C 230.295 48.000,231.000 48.982,231.000 49.529 C 231.000 51.030,229.896 51.834,227.658 51.961 L 226.190 52.045 226.101 51.481 C 226.053 51.171,225.965 49.477,225.906 47.717 L 225.800 44.517 226.858 44.451 C 228.245 44.365,229.305 44.477,229.866 44.767 M221.351 45.632 C 222.682 47.121,222.424 51.090,220.936 52.025 C 220.078 52.565,218.579 52.388,217.987 51.679 C 217.077 50.589,216.840 47.677,217.551 46.318 C 218.296 44.892,220.357 44.520,221.351 45.632 M259.341 45.306 C 259.791 45.671,259.970 46.679,259.988 48.958 L 260.000 50.500 259.417 50.500 L 258.833 50.500 258.814 48.875 C 258.782 46.287,258.538 45.749,257.550 46.092 C 256.721 46.379,256.462 47.167,256.580 49.042 L 256.682 50.667 256.101 50.667 C 255.413 50.667,255.388 50.562,255.280 47.208 L 255.214 45.167 255.774 45.167 C 256.270 45.167,256.333 45.217,256.333 45.615 L 256.333 46.062 256.792 45.635 C 257.560 44.920,258.685 44.774,259.341 45.306 M215.000 45.655 C 215.986 46.357,216.496 48.847,216.015 50.617 C 215.310 53.212,212.017 53.353,211.327 50.818 C 210.311 47.080,212.559 43.919,215.000 45.655 M227.197 45.468 C 226.788 45.745,227.123 47.667,227.580 47.667 C 229.590 47.667,230.088 45.583,228.125 45.389 C 227.735 45.350,227.318 45.386,227.197 45.468 M253.064 45.681 C 253.645 46.138,254.000 46.848,254.000 47.550 L 254.000 48.117 252.303 48.228 C 250.378 48.354,250.423 48.336,250.568 48.913 C 250.821 49.922,252.216 50.324,253.520 49.764 C 253.961 49.574,254.051 50.461,253.615 50.694 C 252.972 51.039,251.278 51.069,250.602 50.748 C 248.771 49.879,248.934 46.145,250.833 45.451 C 251.464 45.221,252.632 45.341,253.064 45.681 M209.168 46.375 C 209.168 46.856,209.217 47.869,209.276 48.625 L 209.383 50.000 209.952 50.000 C 210.818 50.000,210.727 51.054,209.854 51.137 L 209.291 51.191 209.392 51.929 C 209.481 52.578,209.456 52.667,209.177 52.667 C 209.003 52.667,208.745 52.711,208.605 52.765 C 208.402 52.842,208.325 52.681,208.233 51.994 L 208.118 51.125 206.574 51.238 L 205.030 51.351 204.920 50.850 C 204.755 50.095,207.301 45.720,207.965 45.619 C 209.182 45.433,209.167 45.423,209.168 46.375 M241.821 45.911 C 242.470 46.246,242.526 46.447,242.664 48.917 C 242.790 51.193,242.757 51.326,242.061 51.331 C 241.595 51.334,241.505 50.958,241.502 48.995 C 241.499 46.703,240.913 46.061,239.821 47.154 C 239.341 47.633,239.333 47.671,239.333 49.468 L 239.333 51.296 238.792 51.378 C 238.494 51.423,238.238 51.451,238.223 51.439 C 238.208 51.427,238.142 50.208,238.076 48.731 L 237.956 46.044 238.478 45.968 C 238.935 45.901,239.000 45.939,239.000 46.279 C 239.000 46.698,239.245 46.805,239.383 46.445 C 239.622 45.820,241.044 45.509,241.821 45.911 M218.942 46.248 C 217.906 47.284,218.361 51.167,219.533 51.302 C 220.655 51.431,221.105 50.453,220.938 48.251 C 220.794 46.350,219.819 45.372,218.942 46.248 M235.749 46.499 C 236.221 46.942,236.281 47.238,236.406 49.708 L 236.497 51.500 235.915 51.500 C 235.429 51.500,235.333 51.440,235.333 51.138 L 235.333 50.775 234.958 51.127 C 233.757 52.252,232.000 51.740,232.000 50.265 C 232.000 49.241,233.182 48.345,234.542 48.337 C 235.247 48.333,235.364 48.023,234.907 47.370 C 234.617 46.956,233.705 46.867,232.900 47.173 C 232.557 47.304,232.410 47.293,232.306 47.131 C 231.665 46.138,234.759 45.569,235.749 46.499 M213.244 46.325 C 211.742 46.934,212.188 51.667,213.747 51.667 C 215.054 51.667,215.451 47.591,214.246 46.542 C 213.774 46.132,213.740 46.124,213.244 46.325 M250.909 46.576 C 250.086 47.399,250.399 47.622,252.060 47.394 C 252.910 47.278,253.007 47.083,252.494 46.531 C 252.046 46.051,251.416 46.069,250.909 46.576 M175.500 47.667 L 175.500 48.667 176.250 48.667 C 177.340 48.667,177.393 49.433,176.315 49.606 L 175.630 49.715 175.696 51.368 C 175.768 53.165,175.896 53.407,176.688 53.241 C 177.073 53.160,177.135 53.209,177.199 53.644 C 177.268 54.113,177.235 54.144,176.570 54.243 C 174.940 54.488,174.500 53.926,174.500 51.602 C 174.500 49.865,174.430 49.667,173.816 49.667 C 173.412 49.667,173.333 49.598,173.333 49.250 C 173.333 48.898,173.411 48.833,173.833 48.833 C 174.327 48.833,174.333 48.823,174.333 47.931 C 174.333 47.031,174.554 46.766,175.375 46.680 C 175.444 46.673,175.500 47.117,175.500 47.667 M207.042 48.474 C 205.970 50.283,205.961 50.167,207.167 50.167 L 208.167 50.167 208.150 48.958 C 208.121 46.830,208.037 46.794,207.042 48.474 M346.500 47.167 C 346.309 47.290,346.370 47.329,346.761 47.331 C 347.235 47.333,348.741 48.172,359.416 54.377 C 360.262 54.869,360.806 55.094,360.908 54.992 C 361.147 54.753,361.233 54.807,354.252 50.764 C 347.754 47.000,347.174 46.731,346.500 47.167 M161.518 47.762 C 162.448 48.237,162.565 49.829,161.718 50.495 C 161.479 50.684,161.313 50.858,161.350 50.883 C 161.386 50.908,161.615 51.027,161.857 51.149 C 162.647 51.546,162.906 52.720,162.413 53.673 C 162.017 54.439,160.990 54.866,159.314 54.962 L 157.872 55.044 157.774 53.730 C 157.720 53.008,157.628 51.314,157.571 49.966 L 157.466 47.516 158.608 47.454 C 160.032 47.377,160.956 47.474,161.518 47.762 M201.167 48.013 C 201.167 48.490,201.133 48.519,200.696 48.423 C 199.393 48.137,198.755 49.292,199.958 49.760 C 201.585 50.392,201.998 50.912,201.667 51.914 C 201.392 52.748,200.619 53.167,199.355 53.167 L 198.333 53.167 198.333 52.665 C 198.333 52.178,198.353 52.166,198.958 52.261 C 200.626 52.524,201.126 51.348,199.583 50.791 C 197.110 49.897,197.681 47.529,200.375 47.507 C 201.149 47.500,201.167 47.511,201.167 48.013 M193.225 48.958 C 193.283 49.577,193.331 50.509,193.332 51.030 C 193.334 52.477,193.998 52.915,194.949 52.098 C 195.404 51.707,195.418 51.644,195.473 49.765 L 195.529 47.833 196.072 47.833 L 196.615 47.833 196.727 50.428 C 196.851 53.312,196.847 53.333,196.157 53.333 C 195.748 53.333,195.667 53.266,195.667 52.925 L 195.667 52.516 195.237 52.914 C 193.688 54.349,192.336 53.492,192.146 50.954 C 191.929 48.056,191.932 48.032,192.458 47.953 C 192.710 47.915,192.962 47.872,193.018 47.858 C 193.073 47.845,193.166 48.340,193.225 48.958 M189.409 48.236 C 190.211 48.571,190.304 48.851,190.435 51.321 L 190.551 53.525 189.984 53.471 C 189.564 53.431,189.423 53.341,189.440 53.125 C 189.470 52.749,189.434 52.756,188.923 53.230 C 188.035 54.052,186.590 53.856,186.176 52.857 C 185.651 51.588,186.905 50.338,188.708 50.334 C 189.082 50.334,189.167 50.259,189.167 49.929 C 189.167 49.083,188.234 48.761,187.016 49.186 C 186.404 49.399,186.357 49.376,186.295 48.825 C 186.219 48.146,188.267 47.759,189.409 48.236 M140.997 48.348 C 142.868 48.749,143.886 50.553,143.481 52.746 C 143.121 54.693,141.821 55.614,139.192 55.784 L 137.710 55.880 137.609 54.648 C 137.553 53.971,137.459 52.277,137.400 50.883 L 137.291 48.350 138.354 48.291 C 138.938 48.258,139.582 48.216,139.783 48.199 C 139.985 48.181,140.531 48.248,140.997 48.348 M158.914 48.451 C 158.819 48.525,158.771 49.049,158.805 49.645 L 158.865 50.708 159.629 50.603 C 161.461 50.352,161.592 48.567,159.792 48.389 C 159.402 48.350,159.007 48.378,158.914 48.451 M181.753 48.767 C 182.210 49.067,182.722 50.271,182.639 50.853 C 182.585 51.238,182.532 51.251,180.875 51.297 C 179.169 51.345,179.167 51.346,179.167 51.769 C 179.167 52.901,180.424 53.389,182.103 52.907 C 182.814 52.703,182.732 53.618,182.018 53.861 C 179.643 54.671,178.002 53.618,178.001 51.283 C 177.999 48.880,179.940 47.579,181.753 48.767 M227.167 49.229 C 227.167 51.031,227.523 51.343,228.916 50.761 C 230.432 50.128,229.707 48.500,227.909 48.500 L 227.167 48.500 227.167 49.229 M172.470 49.208 C 172.425 49.525,172.290 49.596,171.600 49.667 C 170.111 49.819,170.111 50.674,171.600 51.203 C 174.027 52.065,173.095 54.500,170.339 54.500 C 168.949 54.500,169.044 53.541,170.441 53.467 C 172.098 53.379,172.129 52.594,170.502 51.946 C 168.290 51.065,169.031 48.833,171.536 48.833 C 172.464 48.833,172.520 48.856,172.470 49.208 M167.094 49.244 C 167.724 49.507,168.323 50.530,168.330 51.354 C 168.334 51.882,167.919 52.000,166.063 52.000 C 164.870 52.000,164.833 52.012,164.833 52.407 C 164.833 53.484,165.915 53.958,167.555 53.598 C 168.185 53.460,168.192 53.464,168.138 53.931 C 168.003 55.099,164.889 54.931,164.066 53.710 C 162.465 51.334,164.591 48.198,167.094 49.244 M234.357 49.179 C 233.482 49.351,233.167 49.587,233.167 50.070 C 233.167 50.946,234.086 51.092,234.735 50.321 C 235.064 49.929,235.369 48.911,235.125 49.018 C 235.102 49.028,234.757 49.101,234.357 49.179 M138.989 49.277 C 138.523 49.356,138.493 49.916,138.768 53.458 L 138.862 54.667 139.639 54.666 C 141.343 54.666,142.256 53.739,142.238 52.029 C 142.215 49.894,141.070 48.924,138.989 49.277 M179.500 49.667 C 178.859 50.308,179.053 50.500,180.345 50.500 C 181.489 50.500,181.519 50.489,181.407 50.125 C 181.142 49.258,180.147 49.019,179.500 49.667 M153.125 49.605 C 153.943 49.824,153.604 50.476,152.642 50.533 C 151.116 50.623,151.076 51.496,152.574 51.997 C 155.058 52.828,154.048 55.497,151.322 55.303 C 150.635 55.254,150.580 55.214,150.534 54.745 C 150.485 54.248,150.496 54.241,151.160 54.304 C 153.070 54.486,153.436 53.474,151.693 52.831 C 149.385 51.979,149.985 49.750,152.583 49.519 C 152.675 49.511,152.919 49.550,153.125 49.605 M148.368 50.294 C 148.793 50.719,148.977 51.753,148.990 53.792 L 149.000 55.333 148.500 55.333 C 148.071 55.333,148.000 55.271,148.000 54.894 L 148.000 54.455 147.659 54.888 C 146.675 56.139,144.667 55.600,144.667 54.085 C 144.667 53.030,145.802 52.167,147.192 52.167 C 147.601 52.167,147.667 52.102,147.667 51.700 C 147.667 50.868,146.738 50.561,145.567 51.006 C 145.071 51.195,144.891 51.095,144.806 50.584 C 144.682 49.843,147.673 49.599,148.368 50.294 M165.553 50.003 C 165.194 50.146,164.833 50.641,164.833 50.989 C 164.833 51.098,165.289 51.167,166.011 51.167 C 167.155 51.167,167.186 51.156,167.077 50.792 C 166.862 50.075,166.213 49.739,165.553 50.003 M187.705 51.372 C 187.249 51.591,187.051 52.243,187.335 52.585 C 187.844 53.199,189.167 52.481,189.167 51.591 C 189.167 51.115,188.457 51.009,187.705 51.372 M158.892 52.375 C 158.950 52.856,158.998 53.429,158.999 53.647 C 159.000 54.018,159.048 54.038,159.748 53.959 C 162.092 53.695,161.932 51.500,159.568 51.500 L 158.787 51.500 158.892 52.375 M147.167 52.947 C 146.029 53.134,145.555 53.552,145.757 54.190 C 145.998 54.949,147.333 54.629,147.674 53.730 C 147.865 53.229,147.881 52.825,147.708 52.856 C 147.640 52.869,147.396 52.910,147.167 52.947 " stroke="none" fill="#fbfbfa" fill-rule="evenodd"></path><path id="path2" d="M125.867 13.367 C 125.577 13.656,125.577 35.844,125.867 36.133 C 126.212 36.479,127.792 36.388,127.994 36.011 C 128.100 35.813,128.167 34.055,128.169 31.469 C 128.172 24.643,129.390 22.285,132.921 22.274 C 135.558 22.266,135.737 22.751,135.800 30.076 C 135.856 36.670,135.791 36.371,137.152 36.299 L 138.083 36.250 138.083 29.750 C 138.083 23.399,138.075 23.235,137.722 22.575 C 135.921 19.211,130.472 19.590,128.307 23.231 C 128.029 23.700,127.855 23.933,127.921 23.750 C 128.144 23.132,128.230 13.929,128.016 13.530 C 127.793 13.114,126.237 12.996,125.867 13.367 M168.700 13.367 C 168.436 13.631,168.409 35.519,168.673 36.011 C 168.874 36.388,170.454 36.479,170.800 36.133 C 170.944 35.989,171.000 34.843,171.000 32.027 L 171.000 28.120 174.091 32.227 L 177.182 36.333 178.237 36.333 C 180.417 36.333,180.696 36.844,173.637 27.891 C 173.534 27.760,174.348 26.717,176.174 24.641 C 179.654 20.684,179.726 20.500,177.812 20.500 C 176.839 20.500,177.167 20.192,173.583 24.466 L 171.083 27.448 171.040 20.530 C 171.010 15.762,170.939 13.544,170.811 13.390 C 170.578 13.109,168.975 13.091,168.700 13.367 M203.029 15.501 C 198.152 16.535,195.904 22.323,197.269 30.333 C 198.007 34.671,200.749 36.960,204.801 36.620 C 209.511 36.225,212.004 32.419,211.998 25.632 C 211.991 18.026,208.692 14.299,203.029 15.501 M219.529 15.501 C 215.146 16.431,212.855 21.237,213.493 28.167 C 213.995 33.617,215.694 35.985,219.503 36.541 C 224.998 37.342,228.267 33.583,228.453 26.250 C 228.658 18.191,225.392 14.257,219.529 15.501 M187.734 15.794 C 187.551 15.917,187.091 16.650,182.352 24.370 L 179.823 28.489 180.004 29.947 C 180.257 31.988,179.861 31.833,184.854 31.833 L 189.167 31.833 189.167 33.883 C 189.167 36.401,189.111 36.333,191.167 36.333 C 193.222 36.333,193.167 36.401,193.167 33.883 L 193.167 31.833 194.967 31.833 L 196.768 31.833 196.555 30.625 C 196.439 29.960,196.300 29.135,196.247 28.792 L 196.152 28.167 194.659 28.167 L 193.167 28.167 193.167 22.117 C 193.167 17.633,193.115 16.015,192.967 15.867 C 192.744 15.644,188.055 15.579,187.734 15.794 M205.828 19.081 C 208.121 20.266,208.428 30.228,206.239 32.417 C 204.755 33.901,202.508 33.181,201.760 30.981 C 201.365 29.822,201.189 24.298,201.492 22.555 C 202.030 19.456,203.804 18.034,205.828 19.081 M222.328 19.081 C 224.801 20.360,224.891 30.962,222.444 32.707 C 221.180 33.609,219.214 33.065,218.539 31.628 C 217.514 29.446,217.576 22.464,218.638 20.393 C 219.380 18.946,220.973 18.380,222.328 19.081 M319.083 19.335 C 305.161 21.447,300.281 39.167,311.213 47.914 C 321.875 56.445,337.588 48.870,337.481 35.250 C 337.459 32.377,337.594 32.447,335.247 34.087 C 331.136 36.958,326.454 41.250,322.658 45.627 L 321.900 46.501 321.173 45.471 C 318.386 41.519,313.374 37.884,308.207 36.067 C 307.450 35.801,306.861 35.505,306.897 35.410 C 306.957 35.251,311.201 29.594,311.496 29.279 C 312.189 28.539,319.224 33.862,320.587 36.158 C 321.190 37.172,321.012 37.245,322.591 35.333 C 325.265 32.096,329.014 28.498,332.293 26.022 C 333.851 24.846,333.850 24.851,332.636 23.734 C 328.831 20.232,323.842 18.613,319.083 19.335 M189.276 28.112 C 189.242 28.147,188.046 28.155,186.620 28.129 L 184.026 28.083 186.638 23.917 L 189.250 19.750 189.295 23.900 C 189.319 26.182,189.311 28.078,189.276 28.112 M117.184 20.586 C 110.775 22.389,109.652 33.637,115.642 36.032 C 116.921 36.543,120.492 36.558,122.167 36.060 L 123.250 35.737 123.216 35.007 C 123.163 33.897,122.899 33.727,121.808 34.102 C 117.434 35.604,114.333 33.347,114.333 28.662 C 114.333 23.684,116.926 21.502,121.523 22.612 C 122.899 22.944,123.057 22.853,123.073 21.721 L 123.083 20.937 122.333 20.706 C 121.177 20.351,118.262 20.283,117.184 20.586 M144.852 20.661 C 141.930 21.736,140.342 24.554,140.336 28.673 C 140.328 34.400,143.137 36.943,148.958 36.478 C 151.882 36.244,152.895 35.764,152.661 34.724 C 152.457 33.819,152.347 33.782,150.984 34.163 C 146.177 35.507,143.089 33.761,142.870 29.577 L 142.788 28.005 148.019 27.961 L 153.250 27.917 153.231 26.417 C 153.172 21.841,149.151 19.079,144.852 20.661 M160.302 20.578 C 156.836 21.533,154.962 24.451,154.946 28.917 C 154.928 34.102,157.058 36.420,161.833 36.414 C 165.349 36.410,166.604 35.950,166.337 34.766 C 166.125 33.826,166.036 33.795,164.589 34.165 C 159.555 35.453,156.918 32.869,157.532 27.253 C 157.968 23.265,160.528 21.583,164.603 22.607 C 165.886 22.929,166.087 22.823,166.259 21.736 C 166.360 21.099,166.336 21.043,165.892 20.871 C 164.463 20.320,161.755 20.178,160.302 20.578 M240.506 20.822 C 240.411 21.000,240.333 22.106,240.334 23.281 L 240.334 25.417 239.435 25.361 C 235.378 25.108,232.739 28.491,233.496 32.976 C 234.091 36.504,237.903 37.803,240.150 35.243 L 240.714 34.601 240.627 35.176 C 240.484 36.118,240.703 36.333,241.806 36.333 C 242.334 36.333,242.857 36.243,242.967 36.133 C 243.255 35.845,243.255 20.988,242.967 20.700 C 242.614 20.348,240.709 20.442,240.506 20.822 M148.597 22.351 C 149.719 22.692,150.638 23.987,150.787 25.435 L 150.880 26.333 146.853 26.333 L 142.827 26.333 142.934 25.875 C 143.628 22.890,145.841 21.512,148.597 22.351 M247.897 25.679 C 243.557 27.348,243.739 34.994,248.150 36.277 C 249.975 36.807,253.692 36.305,253.806 35.513 C 253.998 34.182,253.567 33.746,252.406 34.095 C 250.032 34.809,248.078 34.084,247.687 32.342 C 247.453 31.301,247.350 31.333,250.923 31.333 L 254.160 31.333 254.267 30.907 C 255.163 27.338,251.468 24.305,247.897 25.679 M251.042 27.992 C 251.325 28.309,251.500 28.695,251.500 29.003 L 251.500 29.500 249.583 29.500 C 247.471 29.500,247.417 29.467,247.925 28.484 C 248.562 27.253,250.156 27.001,251.042 27.992 M240.042 27.665 C 240.548 27.668,240.464 31.630,239.933 32.770 C 239.054 34.658,236.812 34.684,236.437 32.810 C 235.810 29.674,237.042 27.316,239.167 27.588 C 239.487 27.629,239.881 27.664,240.042 27.665 M229.731 33.163 C 229.166 33.392,228.667 34.155,228.667 34.789 C 228.667 36.461,231.168 37.115,231.929 35.642 C 232.701 34.150,231.274 32.540,229.731 33.163 " stroke="none" fill="#2d2c4c" fill-rule="evenodd"></path></g></svg>