<svg id="svg" version="1.1" xmlns="http://www.w3.org/2000/svg" xmlns:xlink="http://www.w3.org/1999/xlink" width="400" height="58.73192436040045" viewBox="0, 0, 400,58.73192436040045"><g id="svgg"><path id="path0" d="M0.078 0.204 C 0.034 0.321,0.017 6.679,0.040 14.333 L 0.083 28.250 2.500 28.250 L 4.917 28.250 5.000 23.680 L 5.083 19.110 5.679 20.097 C 6.007 20.639,6.664 21.702,7.138 22.458 C 7.612 23.215,8.362 24.415,8.804 25.125 C 9.247 25.835,9.887 26.848,10.226 27.375 L 10.844 28.333 13.568 28.333 C 16.828 28.333,17.324 28.029,16.213 26.710 C 16.050 26.517,15.354 25.522,14.667 24.500 C 13.979 23.478,13.304 22.503,13.167 22.333 C 13.029 22.164,12.354 21.187,11.667 20.161 C 10.979 19.136,10.311 18.186,10.181 18.050 C 10.040 17.902,10.010 17.759,10.106 17.693 C 10.194 17.633,10.446 17.321,10.667 17.000 C 10.887 16.679,11.112 16.379,11.166 16.333 C 11.220 16.287,11.748 15.612,12.340 14.833 C 12.932 14.054,13.458 13.379,13.508 13.333 C 13.558 13.287,13.780 12.987,14.000 12.667 C 14.220 12.346,14.442 12.046,14.492 12.000 C 15.128 11.423,16.016 9.952,15.970 9.552 L 15.917 9.083 13.167 9.040 L 10.417 8.996 10.000 9.623 C 9.771 9.968,9.523 10.325,9.448 10.417 C 9.374 10.508,8.872 11.221,8.333 12.000 C 7.794 12.779,7.289 13.492,7.211 13.583 C 7.133 13.675,6.622 14.406,6.076 15.208 L 5.083 16.667 5.000 8.375 L 4.917 0.083 2.538 0.037 C 0.727 0.002,0.140 0.042,0.078 0.204 M61.506 0.322 C 61.401 0.519,61.333 2.210,61.333 4.656 L 61.333 8.667 59.258 8.667 C 54.668 8.667,51.752 10.322,50.012 13.917 C 47.970 18.136,48.512 24.361,51.152 27.001 C 51.892 27.741,52.332 28.009,53.610 28.494 C 56.080 29.433,59.737 28.313,61.477 26.083 L 61.867 25.583 61.747 26.709 C 61.577 28.316,61.602 28.333,64.070 28.333 C 65.427 28.333,66.166 28.267,66.300 28.133 C 66.590 27.844,66.590 0.490,66.300 0.200 C 65.923 -0.177,61.715 -0.069,61.506 0.322 M72.188 0.244 C 69.385 1.139,69.249 4.955,71.979 6.098 C 72.956 6.507,74.328 6.297,75.073 5.625 C 75.251 5.465,75.443 5.333,75.501 5.333 C 75.558 5.333,75.769 5.042,75.969 4.686 C 77.329 2.266,74.877 -0.614,72.188 0.244 M345.083 0.189 C 340.041 1.095,337.082 2.243,333.500 4.684 C 330.487 6.736,328.857 8.392,326.044 12.258 C 325.817 12.570,324.871 14.238,324.490 15.000 C 323.358 17.257,322.673 19.390,321.976 22.833 C 321.704 24.172,321.688 30.061,321.952 31.250 C 322.053 31.708,322.228 32.533,322.340 33.083 C 322.742 35.055,323.574 37.360,324.625 39.417 C 324.953 40.058,325.303 40.751,325.402 40.957 C 325.502 41.163,325.640 41.331,325.708 41.332 C 325.777 41.333,325.833 41.420,325.833 41.527 C 325.833 42.179,330.081 47.005,331.752 48.252 C 332.118 48.525,332.454 48.795,332.500 48.852 C 333.393 49.971,339.342 52.766,342.333 53.472 C 352.471 55.868,364.048 52.043,369.753 44.414 C 370.026 44.049,370.341 43.654,370.452 43.536 C 370.564 43.418,370.779 43.110,370.932 42.853 C 371.195 42.407,371.994 42.423,371.999 42.875 C 371.999 42.944,372.076 43.000,372.169 43.000 C 372.262 43.000,372.731 43.251,373.211 43.558 C 373.691 43.865,374.283 44.237,374.528 44.386 C 374.941 44.637,374.960 44.697,374.792 45.242 C 374.430 46.422,375.238 47.840,376.750 48.679 C 377.117 48.883,377.829 49.274,378.333 49.549 C 378.837 49.823,379.325 50.104,379.417 50.173 C 379.570 50.289,379.887 50.467,382.000 51.624 C 382.412 51.850,382.825 52.091,382.917 52.160 C 383.008 52.229,383.515 52.521,384.042 52.809 C 384.569 53.098,385.431 53.569,385.958 53.857 C 386.485 54.146,386.992 54.438,387.083 54.507 C 387.175 54.575,387.606 54.827,388.042 55.066 C 388.477 55.305,389.190 55.695,389.625 55.934 C 390.060 56.173,390.492 56.425,390.583 56.493 C 390.675 56.562,391.181 56.854,391.708 57.143 C 392.235 57.431,393.072 57.892,393.567 58.167 C 396.510 59.800,399.820 57.511,399.970 53.739 C 400.059 51.496,399.651 50.736,397.792 49.686 C 396.663 49.049,396.096 48.721,395.167 48.167 C 394.310 47.656,394.033 47.495,392.625 46.691 C 392.117 46.401,391.337 45.941,386.500 43.084 C 385.446 42.462,384.358 41.824,384.083 41.666 C 383.808 41.509,383.246 41.179,382.833 40.934 C 380.311 39.430,379.476 39.367,377.667 40.538 C 377.264 40.799,377.211 40.784,376.083 40.080 C 375.442 39.680,374.823 39.348,374.708 39.343 C 374.594 39.338,374.500 39.258,374.500 39.167 C 374.500 39.075,374.406 38.998,374.292 38.995 C 373.794 38.982,373.435 38.518,373.621 38.127 C 374.053 37.217,374.456 36.195,374.654 35.500 C 374.772 35.087,374.940 34.568,375.027 34.345 C 376.122 31.563,376.269 25.785,375.362 21.117 C 375.147 20.011,375.279 19.999,372.664 21.352 C 370.318 22.566,370.307 22.575,370.402 23.078 C 371.717 29.980,369.478 37.284,364.500 42.335 C 361.862 45.012,358.256 47.252,355.333 48.030 C 355.012 48.116,354.488 48.258,354.167 48.346 C 347.954 50.058,339.925 48.303,335.095 44.178 C 321.756 32.787,325.449 11.809,341.750 6.371 C 342.717 6.049,343.218 5.918,345.167 5.476 C 345.698 5.355,347.239 5.268,348.833 5.268 C 350.428 5.268,351.968 5.355,352.500 5.476 C 354.449 5.918,354.949 6.049,355.917 6.372 C 359.081 7.428,362.070 9.348,364.599 11.949 L 365.782 13.166 367.933 11.910 C 370.192 10.591,373.999 8.670,375.833 7.923 L 376.917 7.483 377.853 8.473 C 381.106 11.911,383.962 16.996,382.833 17.340 C 380.922 17.923,378.050 18.885,377.841 19.013 C 377.675 19.114,378.871 19.155,381.195 19.127 C 385.534 19.075,385.667 19.021,385.667 17.327 C 385.667 13.630,379.471 5.000,376.817 5.000 C 375.912 5.000,371.238 6.994,369.467 8.136 C 368.703 8.628,368.777 8.659,367.304 7.246 C 366.633 6.603,365.821 5.894,365.500 5.671 C 365.179 5.448,364.879 5.219,364.833 5.162 C 364.136 4.293,359.346 1.886,356.833 1.141 C 353.372 0.116,347.941 -0.324,345.083 0.189 M82.834 2.422 C 80.436 3.091,80.667 2.703,80.667 6.074 L 80.667 8.988 79.042 9.036 L 77.417 9.083 77.369 10.809 C 77.308 13.006,77.303 13.000,79.187 13.000 L 80.667 13.000 80.668 18.875 C 80.671 26.599,80.916 27.450,83.405 28.360 C 84.859 28.891,89.500 28.720,90.305 28.106 C 90.564 27.908,90.414 24.899,90.127 24.542 C 90.017 24.405,89.481 24.333,88.571 24.333 C 85.801 24.333,85.677 24.036,85.671 17.375 L 85.667 13.000 87.813 13.000 C 90.454 13.000,90.361 13.083,90.298 10.809 L 90.250 9.083 87.962 9.037 L 85.673 8.991 85.628 5.537 L 85.583 2.083 84.917 2.055 C 84.550 2.040,83.613 2.205,82.834 2.422 M27.721 8.674 C 26.333 8.949,24.652 10.284,23.953 11.667 L 23.659 12.250 23.767 11.052 C 23.826 10.392,23.826 9.661,23.767 9.427 L 23.660 9.000 21.493 9.000 L 19.325 9.000 19.163 9.428 C 18.944 10.002,18.944 27.332,19.163 27.906 L 19.325 28.333 21.559 28.333 C 23.144 28.333,23.842 28.273,23.963 28.125 C 24.067 27.998,24.165 25.900,24.214 22.750 C 24.326 15.501,24.981 13.851,27.859 13.567 C 29.559 13.399,29.460 13.487,29.572 12.042 C 29.627 11.331,29.705 10.391,29.746 9.951 C 29.866 8.651,29.382 8.346,27.721 8.674 M37.333 8.658 C 35.454 8.937,34.345 9.521,32.849 11.016 C 28.763 15.102,29.069 24.217,33.390 27.140 C 35.388 28.492,39.720 29.111,42.867 28.493 C 46.843 27.713,46.801 27.752,46.322 25.283 C 46.236 24.844,46.167 24.262,46.167 23.992 C 46.167 23.721,46.139 23.500,46.105 23.500 C 46.071 23.500,45.565 23.658,44.980 23.850 C 39.622 25.617,36.199 24.592,35.350 20.968 C 35.015 19.539,34.445 19.667,41.167 19.667 L 47.167 19.667 47.191 18.542 C 47.347 11.147,43.893 7.684,37.333 8.658 M70.745 9.204 C 70.700 9.321,70.683 13.654,70.707 18.833 L 70.750 28.250 73.121 28.296 C 75.467 28.342,75.492 28.339,75.583 27.963 C 75.634 27.754,75.655 23.421,75.629 18.333 L 75.583 9.083 73.205 9.037 C 71.394 9.002,70.807 9.042,70.745 9.204 M40.269 12.652 C 41.296 13.119,42.167 14.475,42.167 15.608 L 42.167 16.000 38.747 16.000 L 35.327 16.000 35.427 15.542 C 35.960 13.093,38.242 11.731,40.269 12.652 M60.510 12.851 L 61.369 13.035 61.288 16.726 C 61.192 21.072,60.975 21.942,59.640 23.343 C 57.030 26.082,54.163 23.891,54.175 19.167 C 54.187 14.280,56.486 11.988,60.510 12.851 M270.667 31.194 C 269.246 31.270,266.321 31.409,264.167 31.503 C 262.012 31.596,258.600 31.745,256.583 31.835 C 254.567 31.924,251.173 32.072,249.042 32.165 C 246.910 32.258,243.442 32.408,241.333 32.500 C 239.225 32.592,235.775 32.742,233.667 32.833 C 231.558 32.925,228.108 33.075,226.000 33.167 C 218.319 33.501,209.894 33.869,203.083 34.168 C 201.067 34.257,197.673 34.406,195.542 34.498 C 193.410 34.591,189.942 34.742,187.833 34.833 C 185.725 34.925,182.275 35.075,180.167 35.167 C 178.058 35.258,174.608 35.408,172.500 35.500 C 167.640 35.711,161.986 35.958,157.083 36.173 C 150.009 36.482,145.943 36.660,141.917 36.833 C 139.717 36.928,136.267 37.079,134.250 37.168 C 120.490 37.778,121.363 37.662,119.901 39.079 C 118.494 40.443,118.258 41.477,118.478 45.324 C 118.576 47.025,118.700 49.654,118.755 51.167 C 119.016 58.337,120.009 59.010,129.583 58.502 C 131.325 58.410,134.550 58.258,136.750 58.164 C 138.950 58.071,142.400 57.921,144.417 57.832 C 146.433 57.743,149.827 57.594,151.958 57.502 C 154.090 57.409,157.558 57.258,159.667 57.167 C 161.775 57.075,165.225 56.925,167.333 56.833 C 169.442 56.742,172.910 56.591,175.042 56.498 C 177.173 56.406,180.567 56.257,182.583 56.168 C 184.600 56.079,188.050 55.928,190.250 55.833 C 192.450 55.738,195.900 55.588,197.917 55.499 C 199.933 55.410,203.327 55.261,205.458 55.168 C 207.590 55.076,211.058 54.925,213.167 54.833 C 215.275 54.742,218.725 54.592,220.833 54.500 C 225.694 54.289,231.347 54.042,236.250 53.827 C 243.758 53.499,247.470 53.337,251.417 53.167 C 253.617 53.073,257.029 52.923,259.000 52.834 C 260.971 52.745,264.458 52.595,266.750 52.499 C 277.640 52.045,277.703 52.036,279.061 50.717 C 280.525 49.295,280.710 48.429,280.495 44.000 C 279.996 33.718,280.030 33.946,278.814 32.649 C 277.285 31.019,276.507 30.880,270.667 31.194 M355.161 34.458 L 354.250 35.417 355.208 34.506 C 356.099 33.659,356.243 33.500,356.119 33.500 C 356.093 33.500,355.662 33.931,355.161 34.458 M256.057 38.375 C 256.117 39.406,256.165 40.728,256.166 41.312 C 256.167 42.598,256.266 42.554,257.443 40.744 L 258.250 39.504 259.126 39.502 L 260.003 39.500 258.851 41.059 L 257.700 42.618 258.617 43.768 C 259.122 44.400,259.758 45.198,260.031 45.542 L 260.528 46.167 259.595 46.167 L 258.662 46.167 257.539 44.630 L 256.417 43.094 256.369 44.714 L 256.321 46.333 255.684 46.333 L 255.046 46.333 254.944 45.125 C 254.888 44.460,254.800 42.604,254.749 41.000 C 254.698 39.396,254.618 37.727,254.572 37.292 L 254.489 36.500 255.219 36.500 L 255.949 36.500 256.057 38.375 M237.002 38.521 C 238.269 39.233,238.323 41.631,237.082 42.107 C 236.761 42.230,236.760 42.500,237.081 42.500 C 237.783 42.500,238.417 43.437,238.417 44.474 C 238.417 46.409,237.300 47.192,234.381 47.303 L 232.500 47.375 232.496 46.396 C 232.494 45.857,232.420 43.853,232.330 41.942 C 232.241 40.030,232.209 38.399,232.260 38.317 C 232.470 37.977,236.330 38.143,237.002 38.521 M272.647 38.851 C 273.590 39.180,273.746 39.749,273.916 43.458 L 274.009 45.500 273.281 45.500 L 272.552 45.500 272.449 43.113 C 272.315 40.015,272.036 39.470,270.875 40.040 C 269.898 40.519,269.747 40.984,269.777 43.432 L 269.803 45.667 269.068 45.667 L 268.333 45.667 268.316 44.542 C 268.306 43.923,268.250 42.423,268.191 41.208 L 268.083 39.000 268.792 39.000 C 269.460 39.000,269.500 39.027,269.500 39.478 L 269.500 39.956 270.083 39.406 C 270.842 38.690,271.670 38.511,272.647 38.851 M226.303 39.172 C 228.524 40.526,228.241 46.623,225.912 47.596 C 222.874 48.865,220.609 45.173,221.866 41.000 C 222.432 39.118,224.689 38.188,226.303 39.172 M219.253 39.836 C 221.083 41.610,220.762 46.644,218.746 47.786 C 215.822 49.442,213.200 45.745,214.391 41.646 C 215.092 39.237,217.651 38.284,219.253 39.836 M265.365 39.458 C 265.953 39.801,266.412 40.627,266.581 41.646 C 266.739 42.589,266.615 42.661,264.813 42.664 C 262.253 42.669,261.916 42.897,262.662 44.121 C 263.105 44.846,264.862 45.094,266.026 44.595 C 266.288 44.482,266.673 45.382,266.456 45.599 C 266.165 45.891,263.946 46.152,263.171 45.985 C 260.409 45.393,259.903 41.030,262.417 39.477 C 263.081 39.067,264.677 39.057,265.365 39.458 M233.667 40.146 C 233.667 40.593,233.715 41.201,233.775 41.498 L 233.882 42.037 234.803 41.961 C 237.190 41.763,237.141 39.333,234.750 39.333 L 233.667 39.333 233.667 40.146 M211.919 42.241 L 212.040 44.983 212.728 45.033 C 213.751 45.108,213.807 46.218,212.792 46.302 L 212.167 46.353 212.167 47.343 L 212.167 48.333 211.521 48.333 C 210.833 48.333,210.667 48.045,210.667 46.854 L 210.667 46.417 208.679 46.476 L 206.690 46.534 206.637 45.976 C 206.594 45.528,206.879 44.886,208.066 42.750 C 209.927 39.403,209.842 39.500,210.925 39.500 L 211.798 39.500 211.919 42.241 M251.961 40.037 C 252.506 40.489,252.648 41.152,252.764 43.805 L 252.883 46.500 252.214 46.500 L 251.545 46.500 251.439 45.727 C 251.381 45.301,251.333 44.294,251.333 43.488 C 251.333 41.223,250.919 40.584,249.765 41.066 C 248.840 41.453,248.667 41.993,248.667 44.492 L 248.667 46.667 248.016 46.667 L 247.366 46.667 247.271 45.708 C 247.219 45.181,247.128 43.681,247.069 42.375 L 246.963 40.000 247.648 40.000 C 248.310 40.000,248.333 40.018,248.334 40.542 L 248.335 41.083 248.709 40.619 C 249.390 39.773,251.243 39.441,251.961 40.037 M223.753 40.398 C 222.599 41.553,223.072 46.112,224.395 46.577 C 225.831 47.082,226.665 44.955,226.174 42.041 C 225.853 40.140,224.756 39.396,223.753 40.398 M244.108 40.488 C 244.816 40.919,244.952 41.466,245.074 44.375 L 245.178 46.833 244.506 46.833 C 243.863 46.833,243.833 46.810,243.833 46.311 L 243.833 45.788 243.472 46.248 C 242.430 47.572,240.317 47.382,239.835 45.921 C 239.350 44.452,240.507 43.244,242.715 42.913 C 243.423 42.807,243.500 42.753,243.497 42.356 C 243.491 41.216,242.105 40.840,240.662 41.586 C 240.203 41.823,240.190 41.817,240.083 41.334 C 240.024 41.062,239.962 40.784,239.946 40.716 C 239.820 40.185,243.298 39.994,244.108 40.488 M262.765 40.679 C 262.138 41.424,262.177 41.906,262.854 41.771 C 263.141 41.714,263.786 41.667,264.289 41.667 C 265.201 41.667,265.203 41.666,265.094 41.208 C 264.831 40.098,263.507 39.797,262.765 40.679 M216.450 40.670 C 215.227 41.632,215.570 46.250,216.909 46.860 C 218.120 47.412,218.833 46.329,218.833 43.936 C 218.834 40.862,217.876 39.549,216.450 40.670 M170.814 42.542 L 170.833 43.333 171.663 43.333 C 172.405 43.333,172.505 43.377,172.596 43.741 C 172.749 44.349,172.564 44.500,171.668 44.500 L 170.857 44.500 170.948 46.375 C 171.061 48.709,171.242 49.084,172.183 48.933 C 172.832 48.830,172.833 48.831,172.833 49.397 C 172.833 50.065,172.650 50.167,171.440 50.167 C 169.854 50.167,169.688 49.856,169.520 46.585 L 169.417 44.583 168.792 44.583 C 168.197 44.583,168.166 44.557,168.167 44.042 C 168.167 43.535,168.204 43.500,168.742 43.500 L 169.318 43.500 169.367 42.389 C 169.416 41.284,169.419 41.278,170.000 41.081 C 170.673 40.853,170.776 41.039,170.814 42.542 M209.271 43.054 C 207.928 45.367,207.913 45.167,209.423 45.167 L 210.680 45.167 210.568 43.208 C 210.506 42.131,210.437 41.228,210.415 41.201 C 210.393 41.174,209.878 42.008,209.271 43.054 M383.927 42.974 C 387.804 45.228,393.960 48.789,395.639 49.750 C 396.403 50.187,397.068 50.651,397.118 50.780 C 397.296 51.243,396.958 51.241,396.112 50.772 C 395.011 50.163,385.151 44.446,382.237 42.727 C 381.224 42.130,380.454 41.798,379.911 41.723 C 378.969 41.594,379.281 41.365,380.427 41.345 C 380.991 41.335,381.569 41.604,383.927 42.974 M153.617 42.160 C 154.864 42.920,154.982 45.052,153.812 45.678 C 153.386 45.906,153.421 46.111,153.906 46.232 C 154.540 46.392,155.065 47.264,155.061 48.154 C 155.055 50.033,153.883 50.861,151.077 50.969 L 149.209 51.040 149.108 49.478 C 149.052 48.619,148.958 46.548,148.898 44.875 L 148.791 41.833 150.937 41.834 C 152.772 41.834,153.161 41.882,153.617 42.160 M202.133 42.505 L 202.182 43.094 201.506 43.029 C 199.341 42.823,199.039 44.153,201.095 44.837 C 203.773 45.729,203.213 48.677,200.333 48.846 C 198.644 48.945,198.473 48.892,198.531 48.292 C 198.582 47.762,198.600 47.751,199.314 47.797 C 201.557 47.942,202.102 46.531,200.052 45.885 C 197.058 44.941,198.012 41.752,201.250 41.883 C 202.076 41.916,202.084 41.922,202.133 42.505 M196.571 43.875 C 196.627 44.815,196.691 46.333,196.712 47.250 L 196.750 48.917 196.125 48.968 C 195.504 49.020,195.500 49.016,195.495 48.385 L 195.489 47.750 195.144 48.213 C 194.089 49.627,191.611 49.474,191.255 47.973 C 191.204 47.759,191.107 46.446,191.039 45.055 L 190.917 42.527 191.583 42.457 C 191.950 42.418,192.270 42.401,192.294 42.418 C 192.318 42.435,192.383 43.529,192.438 44.849 C 192.551 47.520,192.707 48.000,193.467 48.000 C 194.738 48.000,195.167 47.105,195.167 44.453 C 195.167 42.166,195.167 42.167,195.928 42.167 L 196.468 42.167 196.571 43.875 M187.550 42.678 C 188.493 42.940,188.785 43.543,188.904 45.479 C 188.958 46.362,189.040 47.590,189.086 48.208 L 189.169 49.333 188.501 49.333 C 187.866 49.333,187.833 49.308,187.833 48.820 L 187.833 48.307 187.137 48.904 C 185.711 50.124,183.872 49.588,183.712 47.907 C 183.583 46.548,184.635 45.624,186.571 45.397 C 187.411 45.298,187.500 45.249,187.500 44.886 C 187.500 43.865,186.315 43.421,184.919 43.918 C 184.187 44.178,184.076 44.129,183.913 43.469 C 183.797 42.999,183.830 42.980,185.417 42.615 C 186.030 42.474,186.911 42.500,187.550 42.678 M129.231 43.038 C 132.125 43.903,132.717 49.226,130.112 50.966 C 128.915 51.766,128.493 51.882,126.458 51.963 L 124.500 52.041 124.500 51.439 C 124.500 51.108,124.418 49.145,124.318 47.078 C 124.219 45.010,124.179 43.209,124.230 43.076 C 124.351 42.761,128.207 42.732,129.231 43.038 M150.333 44.353 L 150.333 45.707 151.340 45.634 C 153.810 45.455,153.811 43.000,151.341 43.000 L 150.333 43.000 150.333 44.353 M178.161 43.307 C 178.852 43.678,179.359 44.594,179.462 45.659 L 179.537 46.447 177.410 46.555 C 174.948 46.679,175.053 46.631,175.316 47.507 C 175.672 48.697,176.766 49.088,178.380 48.603 C 179.202 48.355,179.333 48.433,179.333 49.167 C 179.333 49.905,176.245 50.207,175.167 49.575 C 171.753 47.574,174.682 41.441,178.161 43.307 M233.835 43.542 C 233.835 43.748,233.884 44.423,233.942 45.042 L 234.048 46.167 234.696 46.167 C 236.560 46.167,237.606 44.747,236.532 43.673 C 235.846 42.987,233.832 42.889,233.835 43.542 M167.000 44.067 C 167.000 44.633,166.998 44.635,166.336 44.546 C 164.317 44.275,163.979 45.774,165.917 46.406 C 168.901 47.379,167.894 50.463,164.583 50.488 C 163.494 50.497,163.268 50.345,163.409 49.701 C 163.519 49.201,163.534 49.194,164.385 49.271 C 166.497 49.462,166.891 47.998,164.885 47.415 C 161.988 46.573,162.764 43.502,165.875 43.501 L 167.000 43.500 167.000 44.067 M160.763 44.148 C 161.364 44.514,161.794 45.335,161.939 46.394 C 162.064 47.301,162.084 47.292,159.550 47.373 C 157.578 47.436,157.550 47.452,157.812 48.326 C 158.140 49.422,159.645 49.880,161.100 49.327 C 161.610 49.133,161.826 49.315,161.831 49.942 C 161.836 50.682,158.909 50.997,157.722 50.384 C 155.678 49.328,155.686 45.398,157.735 44.148 C 158.438 43.720,160.061 43.719,160.763 44.148 M241.875 44.162 C 241.234 44.453,241.167 44.540,241.167 45.079 C 241.167 46.668,243.272 46.059,243.602 44.375 C 243.733 43.707,243.061 43.624,241.875 44.162 M125.737 46.440 C 125.796 47.802,125.888 49.357,125.941 49.894 L 126.037 50.872 127.060 50.757 C 129.249 50.510,130.055 49.682,130.135 47.597 C 130.230 45.112,129.375 44.121,127.053 44.024 L 125.630 43.964 125.737 46.440 M176.042 44.166 C 175.656 44.327,175.026 45.414,175.211 45.599 C 175.472 45.861,178.000 45.470,178.000 45.168 C 178.000 44.400,176.867 43.820,176.042 44.166 M143.833 45.063 L 143.833 45.626 143.087 45.542 C 141.104 45.318,140.870 46.781,142.788 47.407 C 145.160 48.181,145.081 50.683,142.664 51.334 C 141.279 51.707,140.424 51.509,140.366 50.803 L 140.315 50.189 141.199 50.269 C 143.328 50.462,143.738 49.002,141.719 48.415 C 138.835 47.576,139.612 44.502,142.708 44.501 L 143.833 44.500 143.833 45.063 M137.450 45.160 C 138.145 45.583,138.277 46.142,138.391 49.125 L 138.482 51.500 137.824 51.500 C 137.198 51.500,137.167 51.475,137.167 50.978 L 137.167 50.455 136.818 50.898 C 135.859 52.118,133.897 52.085,133.253 50.839 C 132.487 49.357,133.731 47.900,136.042 47.574 C 136.772 47.471,136.833 47.426,136.833 46.993 C 136.833 45.928,135.368 45.543,133.969 46.241 C 133.500 46.474,133.195 46.072,133.316 45.379 C 133.415 44.811,136.601 44.642,137.450 45.160 M158.266 45.208 C 157.546 45.851,157.486 46.578,158.163 46.442 C 158.463 46.382,159.111 46.333,159.604 46.333 C 160.651 46.333,160.815 45.966,160.091 45.242 C 159.571 44.723,158.825 44.709,158.266 45.208 M186.045 46.475 C 185.054 46.764,184.728 47.562,185.348 48.181 C 186.017 48.851,187.500 47.920,187.500 46.831 C 187.500 46.304,187.027 46.188,186.045 46.475 M150.500 48.051 C 150.500 49.711,150.559 49.833,151.357 49.833 C 154.104 49.833,154.417 47.017,151.687 46.863 L 150.500 46.796 150.500 48.051 M135.360 48.708 C 134.606 48.955,134.225 49.545,134.471 50.086 C 134.988 51.221,136.716 50.497,136.864 49.083 C 136.925 48.505,136.390 48.372,135.360 48.708 " stroke="none" fill="#fcac3c" fill-rule="evenodd"></path><path id="path1" d="M110.033 0.200 C 109.744 0.490,109.744 27.844,110.033 28.133 C 110.299 28.399,112.535 28.399,112.800 28.133 C 112.947 27.986,113.000 26.554,113.000 22.725 C 113.000 17.045,113.061 16.537,113.987 14.560 C 115.805 10.673,120.810 9.999,121.977 13.483 C 122.106 13.869,122.168 16.235,122.172 20.900 C 122.178 28.868,122.062 28.333,123.790 28.333 C 125.480 28.333,125.359 28.979,125.301 20.222 L 125.250 12.583 124.656 11.427 C 122.673 7.561,116.457 7.610,113.478 11.514 L 112.917 12.250 112.970 6.364 C 113.009 1.988,112.972 0.417,112.824 0.239 C 112.572 -0.064,110.329 -0.096,110.033 0.200 M162.373 0.194 C 162.047 0.520,162.075 27.883,162.401 28.154 C 162.547 28.275,163.101 28.330,163.860 28.299 L 165.083 28.250 165.167 23.369 L 165.250 18.488 167.075 20.932 C 168.078 22.276,168.981 23.460,169.080 23.563 C 169.180 23.666,169.442 24.012,169.664 24.333 C 169.886 24.654,170.112 24.954,170.167 25.000 C 170.221 25.046,170.446 25.346,170.667 25.667 C 170.887 25.988,171.112 26.287,171.167 26.333 C 171.221 26.379,171.449 26.679,171.672 27.000 C 172.609 28.345,172.588 28.333,174.191 28.333 C 175.468 28.333,175.677 28.292,175.827 28.011 C 176.099 27.503,176.067 27.435,174.825 25.884 C 174.179 25.077,173.561 24.304,173.450 24.166 C 173.340 24.028,172.987 23.579,172.667 23.167 C 172.346 22.755,171.993 22.305,171.883 22.167 C 171.772 22.029,171.300 21.429,170.833 20.833 C 170.366 20.237,169.894 19.637,169.784 19.499 C 168.287 17.630,168.309 17.870,169.518 16.537 C 169.829 16.194,170.570 15.352,171.165 14.665 C 171.761 13.979,172.361 13.304,172.499 13.166 C 172.637 13.029,173.162 12.429,173.666 11.833 C 174.170 11.237,174.752 10.578,174.958 10.367 C 175.379 9.938,175.409 9.786,175.161 9.322 C 174.882 8.802,172.309 8.844,171.953 9.375 C 171.815 9.581,171.562 9.900,171.392 10.083 C 171.222 10.267,170.746 10.829,170.334 11.333 C 169.922 11.838,169.498 12.342,169.391 12.455 C 169.284 12.568,168.309 13.721,167.223 15.018 L 165.250 17.375 165.167 8.729 L 165.083 0.083 163.831 0.035 C 163.001 0.004,162.510 0.057,162.373 0.194 M203.291 3.076 C 198.537 4.723,196.179 10.156,196.829 17.967 C 197.472 25.691,199.965 28.687,205.760 28.699 C 210.130 28.707,213.108 26.429,214.572 21.954 C 215.948 17.749,215.664 10.448,213.987 6.938 C 213.242 5.378,211.143 3.333,210.287 3.333 C 210.160 3.333,210.002 3.280,209.936 3.214 C 209.294 2.572,205.004 2.483,203.291 3.076 M223.443 3.081 C 218.971 4.630,216.955 8.628,216.971 15.917 C 216.990 24.900,219.604 28.675,225.818 28.697 C 232.247 28.720,235.533 24.240,235.559 15.417 C 235.579 8.649,234.212 5.240,230.769 3.470 C 228.988 2.554,225.500 2.369,223.443 3.081 M185.566 3.128 C 185.406 3.234,184.595 4.493,183.823 5.833 C 183.691 6.063,183.546 6.287,183.500 6.333 C 183.454 6.379,183.309 6.604,183.178 6.833 C 183.047 7.063,182.568 7.850,182.114 8.583 C 181.660 9.317,181.140 10.179,180.958 10.500 C 180.776 10.821,180.496 11.271,180.336 11.500 C 179.942 12.063,177.664 15.823,177.434 16.290 C 177.333 16.496,177.194 16.665,177.125 16.665 C 177.056 16.666,177.000 16.747,177.000 16.845 C 177.000 16.943,176.765 17.364,176.479 17.781 C 175.913 18.604,175.927 18.366,176.266 21.417 C 176.453 23.093,176.108 23.000,182.109 23.000 L 187.333 23.000 187.333 25.467 C 187.333 28.525,187.158 28.333,189.954 28.333 L 192.175 28.333 192.337 27.906 C 192.427 27.671,192.500 26.471,192.500 25.239 L 192.500 23.000 194.667 23.000 C 196.227 23.000,196.833 22.945,196.833 22.802 C 196.833 22.694,196.726 22.150,196.594 21.594 C 196.462 21.038,196.306 20.077,196.247 19.458 L 196.140 18.333 194.327 18.333 L 192.513 18.333 192.465 10.827 C 192.423 4.372,192.382 3.299,192.167 3.163 C 191.875 2.979,185.838 2.946,185.566 3.128 M207.380 7.229 C 208.961 7.904,209.493 9.201,209.851 13.254 C 210.439 19.923,208.955 24.333,206.124 24.333 C 203.369 24.333,202.343 22.004,202.336 15.739 C 202.329 8.920,204.149 5.850,207.380 7.229 M227.573 7.235 C 229.287 7.951,230.138 10.672,230.159 15.511 C 230.185 21.219,228.785 24.333,226.192 24.333 C 223.813 24.333,222.862 22.675,222.496 17.885 C 221.902 10.109,223.986 5.736,227.573 7.235 M345.333 7.530 C 340.011 8.645,335.598 11.399,332.827 15.334 C 332.601 15.654,332.376 15.954,332.326 16.000 C 332.236 16.082,331.719 16.944,331.175 17.917 C 330.826 18.541,329.932 20.861,329.697 21.750 C 329.600 22.117,329.423 22.792,329.302 23.250 C 328.964 24.538,329.016 29.760,329.382 31.292 C 329.823 33.137,330.091 33.908,330.931 35.750 C 331.326 36.615,332.279 38.253,332.550 38.532 C 332.666 38.652,332.941 39.012,333.161 39.333 C 337.132 45.120,346.532 48.335,353.667 46.348 C 353.988 46.259,354.512 46.116,354.833 46.031 C 356.321 45.636,359.911 43.827,360.500 43.174 C 360.546 43.123,360.883 42.858,361.250 42.585 C 364.604 40.085,367.128 35.906,368.348 30.833 C 368.578 29.873,368.670 24.114,368.458 23.902 C 368.224 23.668,363.716 26.902,360.333 29.731 C 358.373 31.370,353.502 36.167,351.293 38.633 L 349.458 40.682 349.033 40.049 C 345.619 34.964,339.153 30.158,332.789 27.976 C 331.943 27.686,331.198 27.404,331.134 27.349 C 331.045 27.273,336.204 20.259,336.818 19.620 C 336.996 19.436,339.226 20.649,341.750 22.304 C 344.239 23.936,346.862 26.416,347.913 28.131 C 348.266 28.707,348.608 29.120,348.673 29.048 C 348.737 28.976,349.565 27.979,350.513 26.833 C 353.790 22.869,359.396 17.607,363.035 15.078 C 364.217 14.257,364.263 14.468,362.541 12.808 C 359.527 9.903,356.525 8.388,352.033 7.507 C 350.961 7.296,346.374 7.313,345.333 7.530 M99.717 8.915 C 96.245 9.764,94.250 11.957,93.177 16.103 C 92.923 17.086,92.964 21.550,93.238 22.696 C 94.462 27.817,99.080 29.770,105.833 28.023 C 107.140 27.685,107.253 27.517,107.019 26.261 C 106.818 25.189,106.495 24.987,105.554 25.344 C 99.994 27.458,96.276 24.884,96.268 18.917 C 96.262 13.858,98.177 11.333,102.021 11.333 C 103.439 11.333,104.080 11.431,105.459 11.855 C 106.753 12.253,107.806 9.798,106.547 9.319 C 104.930 8.705,101.427 8.497,99.717 8.915 M133.442 9.020 C 130.824 9.905,128.928 12.097,128.053 15.250 C 127.674 16.618,127.668 21.180,128.044 22.500 C 128.426 23.841,128.886 25.000,129.036 25.000 C 129.108 25.000,129.167 25.108,129.167 25.239 C 129.167 26.088,131.896 27.973,133.774 28.422 C 136.583 29.093,143.167 28.219,143.167 27.176 C 143.167 25.704,142.574 25.030,141.547 25.335 C 134.880 27.312,130.833 24.939,130.833 19.053 L 130.833 18.333 137.058 18.333 C 142.876 18.333,143.300 18.313,143.558 18.029 C 144.041 17.494,143.876 15.285,143.181 12.987 C 142.166 9.635,137.384 7.687,133.442 9.020 M152.135 8.983 C 147.857 10.086,145.500 13.774,145.500 19.367 C 145.500 26.345,149.451 29.599,156.500 28.425 C 159.603 27.908,160.041 27.591,159.610 26.175 C 159.307 25.178,159.065 25.053,158.064 25.377 C 152.285 27.250,148.833 24.859,148.833 18.981 C 148.833 13.057,152.049 10.193,157.117 11.602 C 159.140 12.164,159.354 12.068,159.565 10.500 C 159.688 9.591,159.604 9.458,158.750 9.207 C 156.659 8.592,154.001 8.503,152.135 8.983 M187.333 13.583 L 187.333 18.333 184.333 18.333 C 182.683 18.333,181.333 18.295,181.333 18.248 C 181.333 18.201,181.659 17.657,182.057 17.040 C 182.456 16.422,183.181 15.279,183.668 14.500 C 185.028 12.326,186.061 10.671,186.659 9.708 C 186.957 9.227,187.231 8.833,187.267 8.833 C 187.304 8.833,187.333 10.971,187.333 13.583 M250.033 9.200 C 249.894 9.339,249.833 10.220,249.833 12.092 L 249.833 14.783 248.007 14.880 C 242.639 15.163,239.592 20.680,241.912 25.917 C 243.288 29.024,248.314 29.677,249.873 26.952 C 250.067 26.611,250.090 26.646,250.167 27.417 L 250.250 28.250 251.643 28.299 C 253.665 28.369,253.489 29.296,253.495 18.575 C 253.501 8.041,253.684 9.000,251.667 9.000 C 250.774 9.000,250.158 9.075,250.033 9.200 M137.397 11.197 C 139.240 11.726,140.491 13.377,140.497 15.292 L 140.500 16.000 135.833 16.000 L 131.167 16.000 131.167 15.637 C 131.167 12.826,134.585 10.390,137.397 11.197 M260.083 14.902 C 257.151 15.497,255.424 17.762,255.208 21.299 C 254.876 26.749,258.274 29.504,264.000 28.424 C 266.339 27.984,266.500 27.892,266.500 27.004 C 266.500 25.637,266.234 25.291,265.270 25.407 C 260.587 25.969,258.833 25.268,258.833 22.835 L 258.833 22.333 262.830 22.333 L 266.827 22.333 266.937 21.896 C 268.007 17.633,264.461 14.014,260.083 14.902 M262.691 17.934 C 263.095 18.294,263.500 19.159,263.500 19.661 C 263.500 19.986,263.401 20.000,261.149 20.000 C 258.975 20.000,258.807 19.978,258.918 19.708 C 258.984 19.548,259.077 19.267,259.125 19.083 C 259.477 17.735,261.674 17.027,262.691 17.934 M249.313 17.771 L 249.833 17.875 249.833 20.126 C 249.833 23.165,249.369 24.577,248.119 25.339 C 246.364 26.409,245.123 25.031,245.113 22.000 C 245.103 18.686,246.559 17.220,249.313 17.771 M236.787 24.410 C 235.577 25.041,235.163 26.363,235.832 27.460 C 237.405 30.040,241.051 28.015,239.754 25.282 C 239.283 24.289,237.835 23.864,236.787 24.410 " stroke="none" fill="#2c2c4c" fill-rule="evenodd"></path><path id="path2" d="M375.657 7.990 C 373.724 8.809,370.474 10.448,368.333 11.682 C 367.188 12.343,365.893 13.071,365.456 13.300 C 365.019 13.529,364.467 13.897,364.230 14.117 C 363.992 14.337,363.112 15.031,362.274 15.660 C 358.251 18.678,354.049 22.664,350.761 26.583 C 349.761 27.775,348.853 28.850,348.744 28.972 C 348.583 29.150,348.449 29.038,348.049 28.387 C 346.322 25.581,342.872 22.680,338.495 20.354 L 336.907 19.509 333.945 23.423 C 332.086 25.881,331.064 27.364,331.200 27.409 C 331.319 27.449,331.754 27.591,332.167 27.725 C 338.436 29.766,344.596 34.083,348.282 39.019 C 349.624 40.816,349.299 40.850,351.179 38.718 C 356.354 32.849,365.041 25.353,368.501 23.772 C 369.341 23.389,370.207 22.871,370.323 22.683 C 370.492 22.411,374.519 20.379,375.618 20.013 C 376.187 19.823,376.984 19.483,377.388 19.257 C 377.987 18.923,380.230 18.133,382.833 17.340 C 383.367 17.178,383.330 16.809,382.639 15.353 C 381.446 12.844,377.460 7.439,376.857 7.513 C 376.798 7.520,376.258 7.735,375.657 7.990 M254.572 37.292 C 254.618 37.727,254.698 39.396,254.749 41.000 C 254.800 42.604,254.888 44.460,254.944 45.125 L 255.046 46.333 255.684 46.333 L 256.321 46.333 256.369 44.714 L 256.417 43.094 257.539 44.630 L 258.662 46.167 259.595 46.167 L 260.528 46.167 260.031 45.542 C 259.758 45.198,259.122 44.400,258.617 43.768 L 257.700 42.618 258.851 41.059 L 260.003 39.500 259.126 39.502 L 258.250 39.504 257.443 40.744 C 256.266 42.554,256.167 42.598,256.166 41.312 C 256.165 40.728,256.117 39.406,256.057 38.375 L 255.949 36.500 255.219 36.500 L 254.489 36.500 254.572 37.292 M232.260 38.317 C 232.209 38.399,232.241 40.030,232.330 41.942 C 232.420 43.853,232.494 45.857,232.496 46.396 L 232.500 47.375 234.381 47.303 C 237.300 47.192,238.417 46.409,238.417 44.474 C 238.417 43.437,237.783 42.500,237.081 42.500 C 236.760 42.500,236.761 42.230,237.082 42.107 C 238.323 41.631,238.269 39.233,237.002 38.521 C 236.330 38.143,232.470 37.977,232.260 38.317 M271.041 38.784 C 270.835 38.824,270.403 39.104,270.083 39.406 L 269.500 39.956 269.500 39.478 C 269.500 39.027,269.460 39.000,268.792 39.000 L 268.083 39.000 268.191 41.208 C 268.250 42.423,268.306 43.923,268.316 44.542 L 268.333 45.667 269.068 45.667 L 269.803 45.667 269.777 43.432 C 269.747 40.984,269.898 40.519,270.875 40.040 C 272.036 39.470,272.315 40.015,272.449 43.113 L 272.552 45.500 273.281 45.500 L 274.009 45.500 273.916 43.458 C 273.710 38.961,273.331 38.344,271.041 38.784 M223.397 39.073 C 221.595 39.857,220.953 43.793,222.212 46.333 C 223.508 48.949,227.037 48.108,227.679 45.029 C 228.544 40.877,226.329 37.797,223.397 39.073 M215.902 39.472 C 213.465 41.003,213.631 47.065,216.136 48.020 C 219.145 49.167,221.358 45.453,220.122 41.331 C 219.558 39.447,217.432 38.511,215.902 39.472 M262.417 39.477 C 259.903 41.030,260.409 45.393,263.171 45.985 C 263.946 46.152,266.165 45.891,266.456 45.599 C 266.673 45.382,266.288 44.482,266.026 44.595 C 264.862 45.094,263.105 44.846,262.662 44.121 C 261.916 42.897,262.253 42.669,264.813 42.664 C 266.615 42.661,266.739 42.589,266.581 41.646 C 266.222 39.485,264.150 38.406,262.417 39.477 M236.167 39.667 C 237.040 40.540,236.267 41.839,234.803 41.961 L 233.882 42.037 233.775 41.498 C 233.715 41.201,233.667 40.593,233.667 40.146 L 233.667 39.333 234.750 39.333 C 235.611 39.333,235.902 39.402,236.167 39.667 M209.800 39.792 C 209.009 40.710,206.586 45.446,206.637 45.976 L 206.690 46.534 208.679 46.476 L 210.667 46.417 210.667 46.854 C 210.667 48.045,210.833 48.333,211.521 48.333 L 212.167 48.333 212.167 47.343 L 212.167 46.353 212.792 46.302 C 213.807 46.218,213.751 45.108,212.728 45.033 L 212.040 44.983 211.919 42.241 L 211.798 39.500 210.925 39.500 C 210.300 39.500,209.980 39.583,209.800 39.792 M249.750 39.910 C 249.383 40.044,248.915 40.363,248.709 40.619 L 248.335 41.083 248.334 40.542 C 248.333 40.018,248.310 40.000,247.648 40.000 L 246.963 40.000 247.069 42.375 C 247.128 43.681,247.219 45.181,247.271 45.708 L 247.366 46.667 248.016 46.667 L 248.667 46.667 248.667 44.492 C 248.667 41.993,248.840 41.453,249.765 41.066 C 250.919 40.584,251.333 41.223,251.333 43.488 C 251.333 44.294,251.381 45.301,251.439 45.727 L 251.545 46.500 252.214 46.500 L 252.883 46.500 252.764 43.805 C 252.595 39.967,251.934 39.112,249.750 39.910 M225.578 40.427 C 226.706 41.644,226.518 45.808,225.303 46.488 C 223.826 47.316,222.668 44.459,223.242 41.402 C 223.486 40.101,224.777 39.562,225.578 40.427 M240.583 40.393 C 240.217 40.504,239.930 40.649,239.946 40.716 C 239.962 40.784,240.024 41.062,240.083 41.334 C 240.190 41.817,240.203 41.823,240.662 41.586 C 242.105 40.840,243.491 41.216,243.497 42.356 C 243.500 42.753,243.423 42.807,242.715 42.913 C 240.507 43.244,239.350 44.452,239.835 45.921 C 240.317 47.382,242.430 47.572,243.472 46.248 L 243.833 45.788 243.833 46.311 C 243.833 46.810,243.863 46.833,244.506 46.833 L 245.178 46.833 245.074 44.375 C 244.952 41.466,244.816 40.919,244.108 40.488 C 243.494 40.114,241.673 40.065,240.583 40.393 M264.641 40.458 C 265.454 41.146,265.302 41.667,264.289 41.667 C 263.786 41.667,263.141 41.714,262.854 41.771 C 262.177 41.906,262.138 41.424,262.765 40.679 C 263.268 40.081,264.082 39.985,264.641 40.458 M218.135 40.671 C 219.316 41.939,219.054 46.469,217.775 46.884 C 216.320 47.358,215.257 44.679,215.823 41.962 C 216.129 40.496,217.341 39.819,218.135 40.671 M170.000 41.081 C 169.419 41.278,169.416 41.284,169.367 42.389 L 169.318 43.500 168.742 43.500 C 168.204 43.500,168.167 43.535,168.167 44.042 C 168.166 44.557,168.197 44.583,168.792 44.583 L 169.417 44.583 169.520 46.585 C 169.688 49.856,169.854 50.167,171.440 50.167 C 172.650 50.167,172.833 50.065,172.833 49.397 C 172.833 48.831,172.832 48.830,172.183 48.933 C 171.242 49.084,171.061 48.709,170.948 46.375 L 170.857 44.500 171.668 44.500 C 172.564 44.500,172.749 44.349,172.596 43.741 C 172.505 43.377,172.405 43.333,171.663 43.333 L 170.833 43.333 170.814 42.542 C 170.776 41.039,170.673 40.853,170.000 41.081 M210.568 43.208 L 210.680 45.167 209.423 45.167 C 208.732 45.167,208.167 45.119,208.167 45.061 C 208.167 44.915,210.365 41.141,210.415 41.201 C 210.437 41.228,210.506 42.131,210.568 43.208 M379.424 41.484 C 379.177 41.581,379.295 41.639,379.911 41.723 C 380.454 41.798,381.224 42.130,382.237 42.727 C 385.151 44.446,395.011 50.163,396.112 50.772 C 396.958 51.241,397.296 51.243,397.118 50.780 C 397.068 50.651,396.403 50.187,395.639 49.750 C 393.960 48.789,387.804 45.228,383.927 42.974 C 381.023 41.287,380.430 41.091,379.424 41.484 M148.898 44.875 C 148.958 46.548,149.052 48.619,149.108 49.478 L 149.209 51.040 151.077 50.969 C 153.883 50.861,155.055 50.033,155.061 48.154 C 155.065 47.264,154.540 46.392,153.906 46.232 C 153.421 46.111,153.386 45.906,153.812 45.678 C 154.551 45.283,154.865 43.866,154.409 42.984 C 153.913 42.026,153.335 41.835,150.937 41.834 L 148.791 41.833 148.898 44.875 M199.750 42.092 C 197.605 42.873,197.788 45.171,200.052 45.885 C 202.102 46.531,201.557 47.942,199.314 47.797 C 198.600 47.751,198.582 47.762,198.531 48.292 C 198.473 48.892,198.644 48.945,200.333 48.846 C 203.213 48.677,203.773 45.729,201.095 44.837 C 199.039 44.153,199.341 42.823,201.506 43.029 L 202.182 43.094 202.133 42.505 C 202.074 41.811,201.023 41.628,199.750 42.092 M195.278 42.278 C 195.217 42.339,195.167 43.318,195.167 44.453 C 195.167 47.105,194.738 48.000,193.467 48.000 C 192.707 48.000,192.551 47.520,192.438 44.849 C 192.383 43.529,192.318 42.435,192.294 42.418 C 192.270 42.401,191.950 42.418,191.583 42.457 L 190.917 42.527 191.039 45.055 C 191.107 46.446,191.204 47.759,191.255 47.973 C 191.611 49.474,194.089 49.627,195.144 48.213 L 195.489 47.750 195.495 48.385 C 195.500 49.016,195.504 49.020,196.125 48.968 L 196.750 48.917 196.712 47.250 C 196.691 46.333,196.627 44.815,196.571 43.875 L 196.468 42.167 195.928 42.167 C 195.632 42.167,195.339 42.217,195.278 42.278 M185.417 42.615 C 183.830 42.980,183.797 42.999,183.913 43.469 C 184.076 44.129,184.187 44.178,184.919 43.918 C 186.315 43.421,187.500 43.865,187.500 44.886 C 187.500 45.249,187.411 45.298,186.571 45.397 C 184.635 45.624,183.583 46.548,183.712 47.907 C 183.872 49.588,185.711 50.124,187.137 48.904 L 187.833 48.307 187.833 48.820 C 187.833 49.308,187.866 49.333,188.501 49.333 L 189.169 49.333 189.086 48.208 C 189.040 47.590,188.958 46.362,188.904 45.479 C 188.745 42.890,187.756 42.077,185.417 42.615 M124.230 43.076 C 124.179 43.209,124.219 45.010,124.318 47.078 C 124.418 49.145,124.500 51.108,124.500 51.439 L 124.500 52.041 126.458 51.963 C 128.493 51.882,128.915 51.766,130.112 50.966 C 132.717 49.226,132.125 43.903,129.231 43.038 C 128.207 42.732,124.351 42.761,124.230 43.076 M152.776 43.428 C 153.695 44.347,152.932 45.519,151.340 45.634 L 150.333 45.707 150.333 44.353 L 150.333 43.000 151.341 43.000 C 152.200 43.000,152.411 43.063,152.776 43.428 M175.327 43.375 C 173.253 44.421,173.150 48.393,175.167 49.575 C 176.245 50.207,179.333 49.905,179.333 49.167 C 179.333 48.433,179.202 48.355,178.380 48.603 C 176.766 49.088,175.672 48.697,175.316 47.507 C 175.053 46.631,174.948 46.679,177.410 46.555 L 179.537 46.447 179.462 45.659 C 179.244 43.397,177.354 42.353,175.327 43.375 M236.532 43.673 C 237.606 44.747,236.560 46.167,234.696 46.167 L 234.048 46.167 233.942 45.042 C 233.752 43.028,233.679 43.167,234.929 43.167 C 235.928 43.167,236.071 43.212,236.532 43.673 M164.228 43.820 C 162.474 44.889,162.826 46.816,164.885 47.415 C 166.891 47.998,166.497 49.462,164.385 49.271 C 163.534 49.194,163.519 49.201,163.409 49.701 C 163.268 50.345,163.494 50.497,164.583 50.488 C 167.894 50.463,168.901 47.379,165.917 46.406 C 163.979 45.774,164.317 44.275,166.336 44.546 C 166.998 44.635,167.000 44.633,167.000 44.067 L 167.000 43.500 165.875 43.501 C 165.062 43.501,164.605 43.589,164.228 43.820 M157.735 44.148 C 155.686 45.398,155.678 49.328,157.722 50.384 C 158.909 50.997,161.836 50.682,161.831 49.942 C 161.826 49.315,161.610 49.133,161.100 49.327 C 159.645 49.880,158.140 49.422,157.812 48.326 C 157.550 47.452,157.578 47.436,159.550 47.373 C 162.263 47.287,162.492 47.021,161.556 45.050 C 160.997 43.872,158.972 43.394,157.735 44.148 M243.602 44.375 C 243.272 46.059,241.167 46.668,241.167 45.079 C 241.167 44.400,242.052 43.844,243.146 43.837 C 243.692 43.833,243.705 43.849,243.602 44.375 M128.946 44.426 C 129.816 45.061,130.194 46.067,130.135 47.597 C 130.055 49.682,129.249 50.510,127.060 50.757 L 126.037 50.872 125.941 49.894 C 125.888 49.357,125.796 47.802,125.737 46.440 L 125.630 43.964 127.053 44.024 C 128.161 44.070,128.580 44.159,128.946 44.426 M177.708 44.519 C 178.319 45.254,178.121 45.455,176.657 45.584 C 175.087 45.723,175.017 45.685,175.387 44.909 C 175.842 43.955,177.069 43.748,177.708 44.519 M141.061 44.820 C 139.323 45.879,139.679 47.822,141.719 48.415 C 143.738 49.002,143.328 50.462,141.199 50.269 L 140.315 50.189 140.366 50.803 C 140.416 51.408,140.428 51.417,141.200 51.467 C 144.588 51.685,145.869 48.412,142.788 47.407 C 140.870 46.781,141.104 45.318,143.087 45.542 L 143.833 45.626 143.833 45.063 L 143.833 44.500 142.708 44.501 C 141.895 44.501,141.439 44.589,141.061 44.820 M133.877 45.054 C 133.274 45.273,133.254 45.312,133.391 45.994 C 133.486 46.469,133.499 46.475,133.969 46.241 C 135.368 45.543,136.833 45.928,136.833 46.993 C 136.833 47.426,136.772 47.471,136.042 47.574 C 133.731 47.900,132.487 49.357,133.253 50.839 C 133.897 52.085,135.859 52.118,136.818 50.898 L 137.167 50.455 137.167 50.978 C 137.167 51.475,137.198 51.500,137.824 51.500 L 138.482 51.500 138.391 49.125 C 138.277 46.142,138.145 45.583,137.450 45.160 C 136.831 44.782,134.792 44.722,133.877 45.054 M160.091 45.242 C 160.815 45.966,160.651 46.333,159.604 46.333 C 159.111 46.333,158.463 46.382,158.163 46.442 C 157.630 46.549,157.620 46.540,157.732 46.067 C 158.000 44.929,159.317 44.469,160.091 45.242 M187.500 46.831 C 187.500 47.920,186.017 48.851,185.348 48.181 C 184.507 47.341,185.335 46.400,186.958 46.350 C 187.452 46.335,187.500 46.377,187.500 46.831 M153.187 47.317 C 154.114 48.462,153.117 49.833,151.357 49.833 C 150.559 49.833,150.500 49.711,150.500 48.051 L 150.500 46.796 151.687 46.863 C 152.681 46.919,152.924 46.993,153.187 47.317 M136.864 49.083 C 136.716 50.497,134.988 51.221,134.471 50.086 C 134.109 49.291,135.138 48.482,136.417 48.555 C 136.868 48.581,136.912 48.632,136.864 49.083 " stroke="none" fill="#fbfbfa" fill-rule="evenodd"></path></g></svg>